<?xml version="1.0" standalone="no"?>
<!DOCTYPE svg PUBLIC "-//W3C//DTD SVG 1.1//EN" "http://www.w3.org/Graphics/SVG/1.1/DTD/svg11.dtd" >
<svg xmlns="http://www.w3.org/2000/svg" xmlns:xlink="http://www.w3.org/1999/xlink" version="1.1">
<metadata>
Created by FontForge 20170731 at Mon Oct 14 23:50:09 2019
 By Aleksey,,,
Copyright 2019 The Tomorrow Project Authors (https://github.com/MonicaRizzolli/Tomorrow)
</metadata>
<defs>
<font id="Tomorrow-Bold" horiz-adv-x="754" >
  <font-face 
    font-family="Tomorrow"
    font-weight="700"
    font-stretch="normal"
    units-per-em="1000"
    panose-1="0 0 0 0 0 0 0 0 0 0"
    ascent="800"
    descent="-200"
    x-height="522"
    cap-height="737"
    bbox="-530 -240 1387 1209"
    underline-thickness="50"
    underline-position="-175"
    unicode-range="U+000D-FB02"
  />
<missing-glyph horiz-adv-x="719" 
d="M180 345v177h123v-177h-123zM416 345v177h123v-177h-123zM65 29v103l105 98h380l104 -98v-103h-119v48l-44 44h-262l-44 -45v-47h-120z" />
    <glyph glyph-name=".notdef" horiz-adv-x="719" 
d="M180 345v177h123v-177h-123zM416 345v177h123v-177h-123zM65 29v103l105 98h380l104 -98v-103h-119v48l-44 44h-262l-44 -45v-47h-120z" />
    <glyph glyph-name=".null" horiz-adv-x="0" 
 />
    <glyph glyph-name="nonmarkingreturn" horiz-adv-x="333" 
 />
    <glyph glyph-name="CR" unicode="&#xd;" horiz-adv-x="600" 
 />
    <glyph glyph-name="space" unicode=" " horiz-adv-x="246" 
 />
    <glyph glyph-name="exclam" unicode="!" horiz-adv-x="329" 
d="M87 216l-22 521h199l-22 -521h-155zM80 0v157h169v-157h-169z" />
    <glyph glyph-name="quotedbl" unicode="&#x22;" horiz-adv-x="457" 
d="M278 470l-34 267h164l-33 -267h-97zM85 470l-34 267h164l-33 -267h-97z" />
    <glyph glyph-name="numbersign" unicode="#" horiz-adv-x="847" 
d="M158 0l13 92h-106v129h125l11 83h-107v128h124l12 90h187l-12 -90h84l13 90h187l-13 -90h106v-128h-124l-11 -83h106v-129h-124l-12 -92h-187l12 92h-84l-13 -92h-187zM377 221h83l11 83h-83z" />
    <glyph glyph-name="dollar" unicode="$" horiz-adv-x="722" 
d="M278 -110v110h-204v150h384l35 35v82l-35 35h-302l-111 112v212l111 111h122v110h182v-110h178v-150h-374l-35 -35v-65l35 -35h302l111 -111v-230l-111 -111h-106v-110h-182z" />
    <glyph glyph-name="percent" unicode="%" horiz-adv-x="990" 
d="M198 -19l-91 90l684 685l91 -91zM167 366l-112 106v158l112 107h167l113 -107v-158l-113 -106h-167zM228 489h46l35 36v52l-35 36h-46l-35 -36v-52zM656 0l-113 107v158l113 106h166l113 -106v-158l-113 -107h-166zM715 124h47l35 35v53l-35 35h-47l-35 -35v-53z" />
    <glyph glyph-name="ampersand" unicode="&#x26;" horiz-adv-x="861" 
d="M698 -15l-71 72l-56 -57h-395l-106 98v162l151 139l-109 99v141l106 98h320l105 -98v-135l-122 -112l106 -107l70 71l114 -113l-72 -71l72 -75zM367 473h30l55 55v62l-35 35h-69l-36 -35v-62zM319 109h134l56 56l-136 136l-89 -84v-73z" />
    <glyph glyph-name="quotesingle" unicode="'" horiz-adv-x="264" 
d="M84 470l-34 267h164l-33 -267h-97z" />
    <glyph glyph-name="parenleft" unicode="(" horiz-adv-x="403" 
d="M235 -187l-170 177v689l170 177h138v-119h-51l-90 -92v-620l90 -93h51v-119h-138z" />
    <glyph glyph-name="parenright" unicode=")" horiz-adv-x="403" 
d="M30 -187v119h51l90 92v620l-90 93h-51v119h138l170 -177v-689l-170 -177h-138z" />
    <glyph glyph-name="asterisk" unicode="*" horiz-adv-x="470" 
d="M179 385l-92 68l67 82l-104 26l37 109l97 -40l-7 107h115l-6 -106l97 41l37 -110l-103 -26l70 -82l-94 -68l-57 89z" />
    <glyph glyph-name="plus" unicode="+" horiz-adv-x="550" 
d="M209 148v154h-154v132h154v154h132v-154h154v-132h-154v-154h-132z" />
    <glyph glyph-name="comma" unicode="," horiz-adv-x="309" 
d="M19 -110l46 267h173l-114 -267h-105z" />
    <glyph glyph-name="hyphen" unicode="-" horiz-adv-x="460" 
d="M65 212v133h330v-133h-330z" />
    <glyph glyph-name="period" unicode="." horiz-adv-x="309" 
d="M65 0v157h169v-157h-169z" />
    <glyph glyph-name="slash" unicode="/" horiz-adv-x="544" 
d="M15 -109l309 846h205l-309 -846h-205z" />
    <glyph glyph-name="zero" unicode="0" horiz-adv-x="692" 
d="M161 0l-111 111v515l111 111h370l111 -111v-515l-111 -111h-370zM272 142h148l35 35v383l-35 35h-148l-35 -35v-383z" />
    <glyph glyph-name="one" unicode="1" horiz-adv-x="478" 
d="M50 0v148h101v440h-91v149h278v-589h100v-148h-388z" />
    <glyph glyph-name="two" unicode="2" horiz-adv-x="683" 
d="M50 0v172l391 331v62l-30 30h-132l-30 -30v-77h-187v151l105 98h355l106 -98v-198l-352 -292h357v-149h-583z" />
    <glyph glyph-name="three" unicode="3" horiz-adv-x="695" 
d="M171 0l-106 98v129h187v-55l30 -30h146l30 30v110l-30 29h-211v140h211l30 30v84l-30 30h-146l-30 -30v-55h-187v129l105 98h364l111 -111v-172l-74 -73l74 -73v-197l-111 -111h-363z" />
    <glyph glyph-name="four" unicode="4" horiz-adv-x="709" 
d="M403 0v120h-378v141l374 476h191v-476h84v-141h-84v-120h-187zM230 261h173v233z" />
    <glyph glyph-name="five" unicode="5" horiz-adv-x="708" 
d="M171 0l-106 98v140h195v-66l29 -30h138l30 30v136l-30 30h-356v399h552v-148h-352v-120h282l105 -98v-273l-105 -98h-382z" />
    <glyph glyph-name="six" unicode="6" horiz-adv-x="715" 
d="M155 0l-105 98v541l105 98h402l105 -98v-124h-195v45l-35 35h-155l-36 -35v-100h319l105 -98v-264l-105 -98h-405zM277 142h165l35 35v118l-35 35h-165l-36 -35v-118z" />
    <glyph glyph-name="seven" unicode="7" horiz-adv-x="603" 
d="M46 0l297 544v36h-328v157h563v-167l-305 -570h-227z" />
    <glyph glyph-name="eight" unicode="8" horiz-adv-x="696" 
d="M154 0l-104 98v208l84 77l-66 59v197l105 98h350l105 -98v-197l-66 -59l84 -77v-208l-106 -98h-386zM283 454h129l35 35v71l-35 35h-129l-35 -35v-71zM272 142h152l35 35v100l-35 35h-152l-35 -35v-100z" />
    <glyph glyph-name="nine" unicode="9" horiz-adv-x="730" 
d="M173 0l-105 98v124h195v-45l35 -35h155l36 35v100h-319l-105 98v264l105 98h405l105 -98v-541l-105 -98h-402zM288 407h165l36 35v118l-36 35h-165l-35 -35v-118z" />
    <glyph glyph-name="colon" unicode=":" horiz-adv-x="309" 
d="M65 366v157h169v-157h-169zM65 0v157h169v-157h-169z" />
    <glyph glyph-name="semicolon" unicode=";" horiz-adv-x="309" 
d="M65 366v157h169v-157h-169zM19 -110l46 267h173l-114 -267h-105z" />
    <glyph glyph-name="less" unicode="&#x3c;" horiz-adv-x="471" 
d="M323 100l-268 269l268 268l93 -95l-173 -173l173 -174z" />
    <glyph glyph-name="equal" unicode="=" horiz-adv-x="638" 
d="M55 418v132h528v-132h-528zM55 187v132h528v-132h-528z" />
    <glyph glyph-name="greater" unicode="&#x3e;" horiz-adv-x="471" 
d="M148 100l-93 95l173 173l-173 174l93 95l268 -269z" />
    <glyph glyph-name="question" unicode="?" horiz-adv-x="618" 
d="M198 211v197l184 93v86l-29 30h-125l-29 -30v-73h-195v125l105 98h339l105 -98v-219l-204 -102v-107h-151zM189 0v157h169v-157h-169z" />
    <glyph glyph-name="at" unicode="@" horiz-adv-x="1165" 
d="M238 -187l-188 173v578l188 173h677l188 -173v-444l-110 -98h-282l-53 65l-67 -65h-177l-105 98v305l105 97h170l62 -59v59h187v-350l35 -36h29l35 36v328l-122 114h-467l-122 -114v-456l122 -112h612l79 69l81 -93l-108 -95h-769zM530 121h57l59 48v199l-65 55h-51
l-35 -35v-232z" />
    <glyph glyph-name="A" unicode="A" horiz-adv-x="736" 
d="M0 0l216 737h304l216 -737h-198l-37 147h-266l-37 -147h-198zM272 291h192l-78 305h-36z" />
    <glyph glyph-name="B" unicode="B" horiz-adv-x="747" 
d="M70 0v737h492l111 -111v-177l-50 -51l79 -74v-213l-111 -111h-521zM257 451h202l35 35v74l-35 35h-202v-144zM257 142h223l35 35v109l-35 35h-223v-179z" />
    <glyph glyph-name="C" unicode="C" horiz-adv-x="670" 
d="M161 0l-111 111v515l111 111h379l112 -111v-149h-182v83l-36 35h-161l-36 -35v-383l36 -35h167l37 35v84h181v-150l-111 -111h-386z" />
    <glyph glyph-name="D" unicode="D" horiz-adv-x="744" 
d="M70 0v737h481l153 -153v-431l-153 -153h-481zM257 142h213l53 53v347l-53 53h-213v-453z" />
    <glyph glyph-name="E" unicode="E" horiz-adv-x="680" 
d="M70 0v737h560v-152h-373v-136h336v-141h-336v-156h373v-152h-560z" />
    <glyph glyph-name="F" unicode="F" horiz-adv-x="639" 
d="M70 0v737h554v-152h-367v-156h321v-141h-321v-288h-187z" />
    <glyph glyph-name="G" unicode="G" horiz-adv-x="818" 
d="M161 0l-111 111v515l111 111h412l111 -111v-136l-182 1v69l-36 35h-193l-36 -35v-382l36 -36h157l96 85v26h-135v143h304v-396h-158v66l-74 -66h-302z" />
    <glyph glyph-name="H" unicode="H" horiz-adv-x="765" 
d="M70 0v737h187v-274h251v274h187v-737h-187v317h-251v-317h-187z" />
    <glyph glyph-name="I" unicode="I" horiz-adv-x="420" 
d="M40 0v141h82l-2 455h-80v141h340v-141h-81l-2 -455h83v-141h-340z" />
    <glyph glyph-name="J" unicode="J" horiz-adv-x="681" 
d="M141 0l-111 111v204h187v-138l35 -35h137l35 35v560h187v-626l-111 -111h-359z" />
    <glyph glyph-name="K" unicode="K" horiz-adv-x="692" 
d="M70 0v737h187v-293l228 293h207l-260 -321l260 -416h-199l-166 285l-70 -86v-199h-187z" />
    <glyph glyph-name="L" unicode="L" horiz-adv-x="610" 
d="M70 0v737h187v-585h338v-152h-525z" />
    <glyph glyph-name="M" unicode="M" horiz-adv-x="885" 
d="M70 0v737h183l190 -448l190 448h182v-737h-174v405l-154 -373h-88l-155 373v-405h-174z" />
    <glyph glyph-name="N" unicode="N" horiz-adv-x="766" 
d="M70 0v737h204l248 -442v442h174v-737h-174l-242 432h-36v-432h-174z" />
    <glyph glyph-name="O" unicode="O" 
d="M161 0l-111 111v515l111 111h432l111 -111v-515l-111 -111h-432zM273 142h210l35 35v383l-37 35h-208l-36 -35v-383z" />
    <glyph glyph-name="P" unicode="P" horiz-adv-x="689" 
d="M70 0v737h493l111 -111v-284l-111 -111h-306v-231h-187zM257 373h201l35 35v152l-35 35h-201v-222z" />
    <glyph glyph-name="Q" unicode="Q" 
d="M308 -88v88h-147l-111 111v515l111 111h432l111 -111v-515l-111 -111h-147v-88h-138zM273 142h40v78h130v-78h40l35 35v383l-37 35h-208l-36 -35v-383z" />
    <glyph glyph-name="R" unicode="R" horiz-adv-x="742" 
d="M70 0v737h502l112 -111v-264l-84 -84l112 -278h-188l-97 251h-170v-251h-187zM257 393h210l35 35v132l-35 35h-210v-202z" />
    <glyph glyph-name="S" unicode="S" horiz-adv-x="722" 
d="M74 0v150h384l35 35v82l-35 35h-302l-111 112v212l111 111h482v-150h-374l-35 -35v-65l35 -35h302l111 -111v-230l-111 -111h-492z" />
    <glyph glyph-name="T" unicode="T" horiz-adv-x="609" 
d="M211 0v585h-206v152h599v-152h-206v-585h-187z" />
    <glyph glyph-name="U" unicode="U" horiz-adv-x="777" 
d="M174 0l-109 111v626h187v-560l35 -35h203l35 35v560h187v-626l-111 -111h-427z" />
    <glyph glyph-name="V" unicode="V" horiz-adv-x="708" 
d="M189 0l-189 737h214l122 -596h36l122 596h214l-189 -737h-330z" />
    <glyph glyph-name="W" unicode="W" horiz-adv-x="1010" 
d="M156 0l-156 737h215l79 -596h35l80 596h192l80 -596h35l79 596h215l-156 -737h-297l-52 340l-52 -340h-297z" />
    <glyph glyph-name="X" unicode="X" horiz-adv-x="702" 
d="M0 0l177 386l-176 351h215l117 -276h36l117 276h215l-176 -351l177 -386h-216l-117 293h-36l-117 -293h-216z" />
    <glyph glyph-name="Y" unicode="Y" horiz-adv-x="678" 
d="M246 0v258l-74 64l-172 415h215l106 -339h36l106 339h215l-172 -415l-74 -64v-258h-186z" />
    <glyph glyph-name="Z" unicode="Z" horiz-adv-x="680" 
d="M45 0v157l340 393v35h-316v152h566v-157l-339 -393v-35h339v-152h-590z" />
    <glyph glyph-name="bracketleft" unicode="[" horiz-adv-x="386" 
d="M65 -187v1043h291v-119h-124v-805h124v-119h-291z" />
    <glyph glyph-name="backslash" unicode="\" horiz-adv-x="544" 
d="M324 -109l-309 846h205l309 -846h-205z" />
    <glyph glyph-name="bracketright" unicode="]" horiz-adv-x="386" 
d="M30 -187v119h124v805h-124v119h291v-1043h-291z" />
    <glyph glyph-name="asciicircum" unicode="^" horiz-adv-x="645" 
d="M67 522l159 215h198l158 -215h-150l-107 106l-107 -106h-151z" />
    <glyph glyph-name="underscore" unicode="_" horiz-adv-x="616" 
d="M15 -187v132h586v-132h-586z" />
    <glyph glyph-name="grave" unicode="`" horiz-adv-x="377" 
d="M200 778l-150 157h182l105 -157h-137z" />
    <glyph glyph-name="a" unicode="a" horiz-adv-x="632" 
d="M141 0l-111 111v111l111 111h249v35l-36 36h-262v118h373l112 -111v-411h-187v71l-69 -71h-180zM251 102h54l85 85v53h-139l-35 -35v-68z" />
    <glyph glyph-name="b" unicode="b" horiz-adv-x="676" 
d="M65 0v737h187v-279l75 65h188l111 -112v-300l-111 -111h-187l-76 63v-63h-187zM341 107h79l24 25v257l-24 27h-80l-88 -77v-155z" />
    <glyph glyph-name="c" unicode="c" horiz-adv-x="610" 
d="M161 0l-111 111v300l111 111h304l105 -96v-102h-187v59l-35 35h-76l-35 -35v-216l35 -35h287v-132h-398z" />
    <glyph glyph-name="d" unicode="d" horiz-adv-x="676" 
d="M161 0l-111 111v300l111 112h188l75 -64v278h187v-737h-187v63l-76 -63h-187zM256 107h79l89 77v155l-88 77h-80l-24 -27v-257z" />
    <glyph glyph-name="e" unicode="e" horiz-adv-x="621" 
d="M161 0l-111 111v300l111 111h294l111 -111v-198h-329v-46l36 -35h285v-132h-397zM237 321h159v62l-36 35h-87l-36 -35v-62z" />
    <glyph glyph-name="f" unicode="f" horiz-adv-x="367" 
d="M64 0v406h-42v116h42v117l106 98h197v-109h-88l-28 -27v-79h92v-116h-92v-406h-187z" />
    <glyph glyph-name="g" unicode="g" horiz-adv-x="669" 
d="M97 -187v126h296l35 35v93l-80 -67h-187l-111 111v300l111 112h188l79 -68v67h176v-596l-112 -113h-395zM256 107h79l93 80v148l-92 81h-80l-24 -27v-257z" />
    <glyph glyph-name="h" unicode="h" horiz-adv-x="674" 
d="M65 0v737h187v-276l76 62h180l111 -112v-411h-187v385l-34 32h-54l-92 -78v-339h-187z" />
    <glyph glyph-name="i" unicode="i" horiz-adv-x="317" 
d="M65 580v140h187v-140h-187zM65 0v523h187v-523h-187z" />
    <glyph glyph-name="j" unicode="j" horiz-adv-x="331" 
d="M78 580v140h187v-140h-187zM-25 -187v120h76l28 27v562h186l1 -612l-106 -97h-185z" />
    <glyph glyph-name="k" unicode="k" horiz-adv-x="643" 
d="M65 0v737h187v-368l150 153h224l-215 -220l222 -302h-237l-112 173l-32 -34v-139h-187z" />
    <glyph glyph-name="l" unicode="l" horiz-adv-x="317" 
d="M65 0v737h187v-737h-187z" />
    <glyph glyph-name="m" unicode="m" horiz-adv-x="1052" 
d="M65 0v523h187v-72l88 72h180l83 -84l103 84h180l111 -112v-411h-187v385l-34 32h-54l-91 -77v-340h-187v385l-34 32h-54l-104 -88v-329h-187z" />
    <glyph glyph-name="n" unicode="n" horiz-adv-x="686" 
d="M65 0v523h187v-72l88 72h180l111 -112v-411h-187v385l-34 32h-54l-104 -88v-329h-187z" />
    <glyph glyph-name="o" unicode="o" horiz-adv-x="648" 
d="M161 0l-111 111v300l111 111h326l111 -111v-300l-111 -111h-326zM272 104h104l35 36v243l-35 35h-104l-35 -35v-243z" />
    <glyph glyph-name="p" unicode="p" horiz-adv-x="673" 
d="M65 -187v709h187v-61l72 62h188l111 -112v-300l-111 -111h-187l-73 61v-248h-187zM338 107h79l24 25v257l-24 27h-80l-85 -75v-160z" />
    <glyph glyph-name="q" unicode="q" horiz-adv-x="673" 
d="M421 -187v248l-73 -61h-187l-111 111v300l111 112h188l72 -62v61h187v-709h-187zM256 107h79l86 74v160l-85 75h-80l-24 -27v-257z" />
    <glyph glyph-name="r" unicode="r" horiz-adv-x="453" 
d="M65 0v523h187v-82l89 81h102v-167h-150l-41 -37v-318h-187z" />
    <glyph glyph-name="s" unicode="s" horiz-adv-x="599" 
d="M67 0v129h281l28 27v21l-28 28h-201l-107 97v123l106 97h362v-128h-262l-25 -28v-14l27 -28h204l107 -97v-129l-106 -98h-386z" />
    <glyph glyph-name="t" unicode="t" horiz-adv-x="383" 
d="M173 0l-105 97v309h-38v116h45l57 149h123v-149h82v-116h-82v-260l27 -27h76v-119h-185z" />
    <glyph glyph-name="u" unicode="u" horiz-adv-x="671" 
d="M166 -1l-111 111v412h187v-382l35 -35h41l101 86v331h187v-522h-187v70l-87 -71h-166z" />
    <glyph glyph-name="v" unicode="v" horiz-adv-x="634" 
d="M185 0l-185 522h215l84 -381h36l84 381h215l-185 -522h-264z" />
    <glyph glyph-name="w" unicode="w" horiz-adv-x="960" 
d="M147 0l-147 522h214l66 -381h35l66 381h198l66 -381h35l66 381h214l-147 -522h-284l-49 228l-49 -228h-284z" />
    <glyph glyph-name="x" unicode="x" horiz-adv-x="610" 
d="M0 0l141 265l-141 257h212l75 -189h36l75 189h212l-140 -256l140 -266h-214l-73 192h-36l-73 -192h-214z" />
    <glyph glyph-name="y" unicode="y" horiz-adv-x="657" 
d="M97 -187v127h296l35 35v103l-96 -78h-166l-111 111v411h187v-381l35 -35h41l110 94v322h176v-596l-112 -113h-395z" />
    <glyph glyph-name="z" unicode="z" horiz-adv-x="601" 
d="M45 0v124l246 271h-223v127h475v-127l-244 -267h252v-128h-506z" />
    <glyph glyph-name="braceleft" unicode="{" horiz-adv-x="481" 
d="M255 -187l-103 111v329l-24 24h-63v115h63l24 24v329l103 111h196v-119h-109l-22 -23v-314l-66 -66l66 -66v-313l22 -23h109v-119h-196z" />
    <glyph glyph-name="bar" unicode="|" horiz-adv-x="322" 
d="M70 -139v949h182v-949h-182z" />
    <glyph glyph-name="braceright" unicode="}" horiz-adv-x="481" 
d="M30 -187v119h109l22 23v314l66 66l-66 66v313l-22 23h-109v119h196l103 -111v-329l24 -24h63v-115h-63l-24 -24v-329l-103 -111h-196z" />
    <glyph glyph-name="asciitilde" unicode="~" horiz-adv-x="674" 
d="M313 288l-53 79h-27l-17 -32v-42h-151l1 82l81 84h214l53 -80h27l17 32v43h151l-1 -82l-81 -84h-214z" />
    <glyph glyph-name="uni00A0" unicode="&#xa0;" horiz-adv-x="246" 
 />
    <glyph glyph-name="exclamdown" unicode="&#xa1;" horiz-adv-x="329" 
d="M80 365v157h169v-157h-169zM65 -215l22 521h155l22 -521h-199z" />
    <glyph glyph-name="cent" unicode="&#xa2;" horiz-adv-x="610" 
d="M234 -10v109h-73l-111 111v300l111 111h73v106h165v-106h66l105 -96v-102h-187v59l-35 35h-76l-35 -35v-216l35 -35h287v-132h-160v-109h-165z" />
    <glyph glyph-name="sterling" unicode="&#xa3;" horiz-adv-x="755" 
d="M50 0v152h77v152h-77v125h77v197l111 111h356l111 -111v-149h-182v83l-35 35h-139l-35 -35v-131h209v-125h-209v-152h391v-152h-655z" />
    <glyph glyph-name="currency" unicode="&#xa4;" horiz-adv-x="665" 
d="M150 84l-80 80l55 55l-20 20v126l20 20l-55 55l80 80l55 -54l20 21h215l20 -21l55 54l80 -80l-55 -55l20 -20v-126l-20 -20l55 -55l-80 -80l-55 54l-20 -21h-215l-20 21zM307 222h51l31 39v81l-31 39h-51l-31 -39v-81z" />
    <glyph glyph-name="yen" unicode="&#xa5;" horiz-adv-x="689" 
d="M239 0v126h-190v121h190l-50 44h-140v121h78l-127 325h221l106 -339h36l106 339h220l-127 -325h79v-121h-141l-50 -44h191v-121h-191v-126h-211z" />
    <glyph glyph-name="brokenbar" unicode="&#xa6;" horiz-adv-x="322" 
d="M70 451v359h182v-359h-182zM70 -139v359h182v-359h-182z" />
    <glyph glyph-name="section" unicode="&#xa7;" horiz-adv-x="699" 
d="M104 -66v119l300 -1l27 27v41l-27 27h-166l-153 131v145l58 57l-58 50v108l101 99h390v-119h-273l-28 -27v-36l28 -27h159l152 -139v-137l-58 -55l58 -52v-112l-101 -99h-409zM304 269h122l27 28v53l-59 57h-121l-27 -28v-59z" />
    <glyph glyph-name="dieresis" unicode="&#xa8;" horiz-adv-x="411" 
d="M183 795v140h187v-140h-187zM-90 795v140h187v-140h-187z" />
    <glyph glyph-name="copyright" unicode="&#xa9;" horiz-adv-x="1098" 
d="M238 -88l-188 173v479l188 173h622l188 -173v-479l-188 -173h-622zM344 35h410l122 114v352l-122 113h-410l-122 -113v-352zM400 89l-106 98v275l106 98h298l106 -97v-91h-187v59l-36 35h-65l-35 -35v-213l35 -35h65l36 35v59h187v-91l-106 -97h-298z" />
    <glyph glyph-name="ordfeminine" unicode="&#xaa;" horiz-adv-x="536" 
d="M140 320l-84 87v102l80 83h175v26l-22 22h-184v97h283l92 -95v-322h-159v51l-48 -51h-133zM236 412h31l44 42v63h-75l-22 -22v-61z" />
    <glyph glyph-name="guillemotleft" unicode="&#xab;" horiz-adv-x="727" 
d="M501 0l-194 262l194 260h200l-194 -260l194 -262h-200zM218 0l-194 262l194 260h200l-194 -260l194 -262h-200z" />
    <glyph glyph-name="logicalnot" unicode="&#xac;" horiz-adv-x="604" 
d="M416 275v114h-361v133h494v-247h-133z" />
    <glyph glyph-name="uni00AD" unicode="&#xad;" horiz-adv-x="461" 
d="M55 212v133h330v-133h-330z" />
    <glyph glyph-name="registered" unicode="&#xae;" horiz-adv-x="958" 
d="M224 25l-174 159v395l174 158h510l174 -158v-395l-174 -159h-510zM315 142h328l100 91v296l-100 91h-328l-101 -91v-296zM280 198v366h329l72 -66v-124l-45 -43l57 -131l-171 -2l-45 111h-28v-111h-169zM449 383h43l28 27v46l-28 28h-43v-101z" />
    <glyph glyph-name="macron" unicode="&#xaf;" horiz-adv-x="514" 
d="M50 795v118h460v-118h-460z" />
    <glyph glyph-name="degree" unicode="&#xb0;" horiz-adv-x="444" 
d="M136 384l-111 111v131l111 111h126l112 -111v-131l-112 -111h-126zM142 503h115v115h-115v-115z" />
    <glyph glyph-name="plusminus" unicode="&#xb1;" horiz-adv-x="550" 
d="M209 192v154h-154v132h154v154h132v-154h154v-132h-154v-154h-132zM55 0v132h440v-132h-440z" />
    <glyph glyph-name="uni00B2" unicode="&#xb2;" horiz-adv-x="414" 
d="M50 347v102l196 166v30h-74v-54h-115v91l58 55h187l59 -55v-109l-156 -130h159v-96h-314z" />
    <glyph glyph-name="uni00B3" unicode="&#xb3;" horiz-adv-x="426" 
d="M124 347l-59 56v68h116v-31h80v63h-120v91h120v51h-80v-27h-116v64l58 55h192l61 -62v-94l-32 -33l32 -32v-107l-61 -62h-191z" />
    <glyph glyph-name="acute" unicode="&#xb4;" horiz-adv-x="360" 
d="M50 795l105 157h182l-150 -157h-137z" />
    <glyph glyph-name="uni00B5" unicode="&#xb5;" horiz-adv-x="671" 
d="M55 -187v710h187v-384l35 -35h41l101 87v330h187v-522h-187v70l-87 -71h-90v-185h-187z" />
    <glyph glyph-name="paragraph" unicode="&#xb6;" horiz-adv-x="899" 
d="M350 -124v340h-173l-127 125v269l127 126h667v-119h-75v-741h-184v741h-52v-741h-183z" />
    <glyph glyph-name="periodcentered" unicode="&#xb7;" horiz-adv-x="299" 
d="M65 290v157h169v-157h-169z" />
    <glyph glyph-name="cedilla" unicode="&#xb8;" horiz-adv-x="254" 
d="M50 -125l20 125h151l-50 -125h-121z" />
    <glyph glyph-name="uni00B9" unicode="&#xb9;" horiz-adv-x="305" 
d="M50 346v97h50v198h-46v96h162v-294h49v-97h-215z" />
    <glyph glyph-name="ordmasculine" unicode="&#xba;" horiz-adv-x="548" 
d="M143 320l-87 89v239l87 89h262l87 -89v-239l-87 -89h-262zM245 418h58l22 22v178l-22 22h-58l-22 -22v-178z" />
    <glyph glyph-name="guillemotright" unicode="&#xbb;" horiz-adv-x="727" 
d="M309 0l194 262l-194 260h200l194 -260l-194 -262h-200zM26 0l194 262l-194 260h200l194 -260l-194 -262h-200z" />
    <glyph glyph-name="onequarter" unicode="&#xbc;" horiz-adv-x="789" 
d="M183 -66l-94 62l514 807l94 -61zM65 346v97h50v198h-46v96h162v-294h49v-97h-215zM567 0v61h-189v85l192 245h112v-238h42v-92h-42v-61h-115zM513 153h54v72z" />
    <glyph glyph-name="onehalf" unicode="&#xbd;" horiz-adv-x="857" 
d="M183 -66l-94 62l514 807l94 -61zM65 346v97h50v198h-46v96h162v-294h49v-97h-215zM471 -1v103l196 166v30h-74v-54h-115v91l58 55h187l59 -55v-109l-156 -130h159v-97h-314z" />
    <glyph glyph-name="threequarters" unicode="&#xbe;" horiz-adv-x="864" 
d="M259 -66l-94 62l514 807l94 -61zM124 347l-59 56v68h116v-31h80v63h-120v91h120v51h-80v-27h-116v64l58 55h192l61 -62v-94l-32 -33l32 -32v-107l-61 -62h-191zM642 0v61h-189v85l192 245h112v-238h42v-92h-42v-61h-115zM588 153h54v72z" />
    <glyph glyph-name="questiondown" unicode="&#xbf;" horiz-adv-x="618" 
d="M260 365v157h169v-157h-169zM170 -215l-105 98v219l204 102v107h151v-197l-184 -92v-87l29 -30h125l29 30v73h195v-125l-105 -98h-339z" />
    <glyph glyph-name="Agrave" unicode="&#xc0;" horiz-adv-x="736" 
d="M290 795l-150 157h182l105 -157h-137zM0 0l216 737h304l216 -737h-198l-37 147h-266l-37 -147h-198zM272 291h192l-78 305h-36z" />
    <glyph glyph-name="Aacute" unicode="&#xc1;" horiz-adv-x="736" 
d="M303 795l105 157h182l-150 -157h-137zM0 0l216 737h304l216 -737h-198l-37 147h-266l-37 -147h-198zM272 291h192l-78 305h-36z" />
    <glyph glyph-name="Acircumflex" unicode="&#xc2;" horiz-adv-x="736" 
d="M152 795l113 152h198l113 -152h-142l-70 72l-71 -72h-141zM0 0l216 737h304l216 -737h-198l-37 147h-266l-37 -147h-198zM272 291h192l-78 305h-36z" />
    <glyph glyph-name="Atilde" unicode="&#xc3;" horiz-adv-x="736" 
d="M348 795l-47 63h-20l-14 -31v-25h-126l2 81l67 69h178l47 -59h20l14 26v27h126l-1 -79l-68 -72h-178zM0 0l216 737h304l216 -737h-198l-37 147h-266l-37 -147h-198zM272 291h192l-78 305h-36z" />
    <glyph glyph-name="Adieresis" unicode="&#xc4;" horiz-adv-x="736" 
d="M411 795v140h187v-140h-187zM138 795v140h187v-140h-187zM0 0l216 737h304l216 -737h-198l-37 147h-266l-37 -147h-198zM272 291h192l-78 305h-36z" />
    <glyph glyph-name="Aring" unicode="&#xc5;" horiz-adv-x="736" 
d="M306 795l-72 72v81l72 72h116l72 -72v-81l-72 -72h-116zM352 874h24l21 21v24l-21 21h-24l-21 -21v-24zM0 0l216 737h304l216 -737h-198l-37 147h-266l-37 -147h-198zM272 291h192l-78 305h-36z" />
    <glyph glyph-name="AE" unicode="&#xc6;" horiz-adv-x="1087" 
d="M0 0l216 737h821v-163h-469l35 -120h396v-152h-352l41 -139h349v-163h-499l-37 147h-266l-37 -147h-198zM272 291h192l-78 305h-36z" />
    <glyph glyph-name="Ccedilla" unicode="&#xc7;" horiz-adv-x="670" 
d="M265 -125l20 125h-124l-111 111v515l111 111h379l112 -111v-149h-182v83l-36 35h-161l-36 -35v-383l36 -35h167l37 35v84h181v-150l-111 -111h-111l-50 -125h-121z" />
    <glyph glyph-name="Egrave" unicode="&#xc8;" horiz-adv-x="680" 
d="M277 795l-150 157h182l105 -157h-137zM70 0v737h560v-152h-373v-136h336v-141h-336v-156h373v-152h-560z" />
    <glyph glyph-name="Eacute" unicode="&#xc9;" horiz-adv-x="680" 
d="M290 795l105 157h182l-150 -157h-137zM70 0v737h560v-152h-373v-136h336v-141h-336v-156h373v-152h-560z" />
    <glyph glyph-name="Ecircumflex" unicode="&#xca;" horiz-adv-x="680" 
d="M139 795l113 152h198l113 -152h-142l-70 72l-71 -72h-141zM70 0v737h560v-152h-373v-136h336v-141h-336v-156h373v-152h-560z" />
    <glyph glyph-name="Edieresis" unicode="&#xcb;" horiz-adv-x="680" 
d="M393 795v140h187v-140h-187zM120 795v140h187v-140h-187zM70 0v737h560v-152h-373v-136h336v-141h-336v-156h373v-152h-560z" />
    <glyph glyph-name="Igrave" unicode="&#xcc;" horiz-adv-x="420" 
d="M136 795l-150 157h182l105 -157h-137zM40 0v141h82l-2 455h-80v141h340v-141h-81l-2 -455h83v-141h-340z" />
    <glyph glyph-name="Iacute" unicode="&#xcd;" horiz-adv-x="420" 
d="M149 795l105 157h182l-150 -157h-137zM40 0v141h82l-2 455h-80v141h340v-141h-81l-2 -455h83v-141h-340z" />
    <glyph glyph-name="Icircumflex" unicode="&#xce;" horiz-adv-x="420" 
d="M-2 795l113 152h198l113 -152h-142l-70 72l-71 -72h-141zM40 0v141h82l-2 455h-80v141h340v-141h-81l-2 -455h83v-141h-340z" />
    <glyph glyph-name="Idieresis" unicode="&#xcf;" horiz-adv-x="420" 
d="M253 795v140h187v-140h-187zM-20 795v140h187v-140h-187zM40 0v141h82l-2 455h-80v141h340v-141h-81l-2 -455h83v-141h-340z" />
    <glyph glyph-name="Eth" unicode="&#xd0;" horiz-adv-x="744" 
d="M70 0v316h-73v118h73v303h481l153 -153v-431l-153 -153h-481zM257 142h213l53 53v347l-53 53h-213v-161h102v-118h-102v-174z" />
    <glyph glyph-name="Ntilde" unicode="&#xd1;" horiz-adv-x="766" 
d="M357 795l-47 63h-20l-14 -31v-25h-126l2 81l67 69h178l47 -59h20l14 26v27h126l-1 -79l-68 -72h-178zM70 0v737h204l248 -442v442h174v-737h-174l-242 432h-36v-432h-174z" />
    <glyph glyph-name="Ograve" unicode="&#xd2;" 
d="M303 795l-150 157h182l105 -157h-137zM161 0l-111 111v515l111 111h432l111 -111v-515l-111 -111h-432zM273 142h210l35 35v383l-37 35h-208l-36 -35v-383z" />
    <glyph glyph-name="Oacute" unicode="&#xd3;" 
d="M316 795l105 157h182l-150 -157h-137zM161 0l-111 111v515l111 111h432l111 -111v-515l-111 -111h-432zM273 142h210l35 35v383l-37 35h-208l-36 -35v-383z" />
    <glyph glyph-name="Ocircumflex" unicode="&#xd4;" 
d="M165 795l113 152h198l113 -152h-142l-70 72l-71 -72h-141zM161 0l-111 111v515l111 111h432l111 -111v-515l-111 -111h-432zM273 142h210l35 35v383l-37 35h-208l-36 -35v-383z" />
    <glyph glyph-name="Otilde" unicode="&#xd5;" 
d="M357 795l-47 63h-20l-14 -31v-25h-126l2 81l67 69h178l47 -59h20l14 26v27h126l-1 -79l-68 -72h-178zM161 0l-111 111v515l111 111h432l111 -111v-515l-111 -111h-432zM273 142h210l35 35v383l-37 35h-208l-36 -35v-383z" />
    <glyph glyph-name="Odieresis" unicode="&#xd6;" 
d="M420 795v140h187v-140h-187zM147 795v140h187v-140h-187zM161 0l-111 111v515l111 111h432l111 -111v-515l-111 -111h-432zM273 142h210l35 35v383l-37 35h-208l-36 -35v-383z" />
    <glyph glyph-name="multiply" unicode="&#xd7;" horiz-adv-x="669" 
d="M521 87l-186 186l-184 -184l-94 95l184 183l-186 186l93 94l186 -186l187 186l93 -94l-186 -186l186 -187z" />
    <glyph glyph-name="Oslash" unicode="&#xd8;" 
d="M161 0l-111 111v515l111 111h432l111 -111v-515l-111 -111h-432zM237 254l213 341h-177l-36 -35v-306zM304 142h179l35 35v307z" />
    <glyph glyph-name="Ugrave" unicode="&#xd9;" horiz-adv-x="777" 
d="M315 795l-150 157h182l105 -157h-137zM174 0l-109 111v626h187v-560l35 -35h203l35 35v560h187v-626l-111 -111h-427z" />
    <glyph glyph-name="Uacute" unicode="&#xda;" horiz-adv-x="777" 
d="M328 795l105 157h182l-150 -157h-137zM174 0l-109 111v626h187v-560l35 -35h203l35 35v560h187v-626l-111 -111h-427z" />
    <glyph glyph-name="Ucircumflex" unicode="&#xdb;" horiz-adv-x="777" 
d="M177 795l113 152h198l113 -152h-142l-70 72l-71 -72h-141zM174 0l-109 111v626h187v-560l35 -35h203l35 35v560h187v-626l-111 -111h-427z" />
    <glyph glyph-name="Udieresis" unicode="&#xdc;" horiz-adv-x="777" 
d="M432 795v140h187v-140h-187zM159 795v140h187v-140h-187zM174 0l-109 111v626h187v-560l35 -35h203l35 35v560h187v-626l-111 -111h-427z" />
    <glyph glyph-name="Yacute" unicode="&#xdd;" horiz-adv-x="678" 
d="M278 795l105 157h182l-150 -157h-137zM246 0v258l-74 64l-172 415h215l106 -339h36l106 339h215l-172 -415l-74 -64v-258h-186z" />
    <glyph glyph-name="Thorn" unicode="&#xde;" horiz-adv-x="689" 
d="M70 -1v737h187v-105h306l111 -111v-284l-111 -111h-306v-126h-187zM257 267h201l35 35v152l-35 35h-201v-222z" />
    <glyph glyph-name="germandbls" unicode="&#xdf;" horiz-adv-x="735" 
d="M70 0v639l105 98h353l104 -98v-192l-47 -46l105 -97v-206l-104 -98h-263v131h123l35 35v120l-35 35h-123v119h88l35 35v96l-35 35h-101l-35 -35v-571h-205z" />
    <glyph glyph-name="agrave" unicode="&#xe0;" horiz-adv-x="632" 
d="M228 580l-150 157h182l105 -157h-137zM141 0l-111 111v111l111 111h249v35l-36 36h-262v118h373l112 -111v-411h-187v71l-69 -71h-180zM251 102h54l85 85v53h-139l-35 -35v-68z" />
    <glyph glyph-name="aacute" unicode="&#xe1;" horiz-adv-x="632" 
d="M241 580l105 157h182l-150 -157h-137zM141 0l-111 111v111l111 111h249v35l-36 36h-262v118h373l112 -111v-411h-187v71l-69 -71h-180zM251 102h54l85 85v53h-139l-35 -35v-68z" />
    <glyph glyph-name="acircumflex" unicode="&#xe2;" horiz-adv-x="632" 
d="M90 580l113 152h198l113 -152h-142l-70 72l-71 -72h-141zM141 0l-111 111v111l111 111h249v35l-36 36h-262v118h373l112 -111v-411h-187v71l-69 -71h-180zM251 102h54l85 85v53h-139l-35 -35v-68z" />
    <glyph glyph-name="atilde" unicode="&#xe3;" horiz-adv-x="632" 
d="M286 580l-47 63h-20l-14 -31v-25h-126l2 81l67 69h178l47 -59h20l14 26v27h126l-1 -79l-68 -72h-178zM141 0l-111 111v111l111 111h249v35l-36 36h-262v118h373l112 -111v-411h-187v71l-69 -71h-180zM251 102h54l85 85v53h-139l-35 -35v-68z" />
    <glyph glyph-name="adieresis" unicode="&#xe4;" horiz-adv-x="632" 
d="M353 580v140h187v-140h-187zM80 580v140h187v-140h-187zM141 0l-111 111v111l111 111h249v35l-36 36h-262v118h373l112 -111v-411h-187v71l-69 -71h-180zM251 102h54l85 85v53h-139l-35 -35v-68z" />
    <glyph glyph-name="aring" unicode="&#xe5;" horiz-adv-x="632" 
d="M244 580l-72 72v81l72 72h116l72 -72v-81l-72 -72h-116zM290 659h24l21 21v24l-21 21h-24l-21 -21v-24zM141 0l-111 111v111l111 111h249v35l-36 36h-262v118h373l112 -111v-411h-187v71l-69 -71h-180zM251 102h54l85 85v53h-139l-35 -35v-68z" />
    <glyph glyph-name="ae" unicode="&#xe6;" horiz-adv-x="961" 
d="M30 111v101l111 111h249v45l-36 36h-262v118h352l38 -38l38 38h275l111 -111v-201h-329v-43l36 -35h285v-132h-386l-70 71l-69 -71h-232zM577 323h159v60l-36 35h-87l-36 -35v-60zM216 137l35 -35h54l85 85v23h-139l-35 -35v-38z" />
    <glyph glyph-name="ccedilla" unicode="&#xe7;" horiz-adv-x="610" 
d="M245 -125l20 125h-104l-111 111v300l111 111h304l105 -96v-102h-187v59l-35 35h-76l-35 -35v-216l35 -35h287v-132h-143l-50 -125h-121z" />
    <glyph glyph-name="egrave" unicode="&#xe8;" horiz-adv-x="621" 
d="M234 580l-150 157h182l105 -157h-137zM161 0l-111 111v300l111 111h294l111 -111v-198h-329v-46l36 -35h285v-132h-397zM237 321h159v62l-36 35h-87l-36 -35v-62z" />
    <glyph glyph-name="eacute" unicode="&#xe9;" horiz-adv-x="621" 
d="M247 580l105 157h182l-150 -157h-137zM161 0l-111 111v300l111 111h294l111 -111v-198h-329v-46l36 -35h285v-132h-397zM237 321h159v62l-36 35h-87l-36 -35v-62z" />
    <glyph glyph-name="ecircumflex" unicode="&#xea;" horiz-adv-x="621" 
d="M96 580l113 152h198l113 -152h-142l-70 72l-71 -72h-141zM161 0l-111 111v300l111 111h294l111 -111v-198h-329v-46l36 -35h285v-132h-397zM237 321h159v62l-36 35h-87l-36 -35v-62z" />
    <glyph glyph-name="edieresis" unicode="&#xeb;" horiz-adv-x="621" 
d="M351 580v140h187v-140h-187zM78 580v140h187v-140h-187zM161 0l-111 111v300l111 111h294l111 -111v-198h-329v-46l36 -35h285v-132h-397zM237 321h159v62l-36 35h-87l-36 -35v-62z" />
    <glyph glyph-name="igrave" unicode="&#xec;" horiz-adv-x="317" 
d="M85 580l-150 157h182l105 -157h-137zM65 0v523h187v-523h-187z" />
    <glyph glyph-name="iacute" unicode="&#xed;" horiz-adv-x="317" 
d="M87 580l105 157h182l-150 -157h-137zM65 0v523h187v-523h-187z" />
    <glyph glyph-name="icircumflex" unicode="&#xee;" horiz-adv-x="317" 
d="M-53 580l113 152h198l113 -152h-142l-70 72l-71 -72h-141zM65 0v523h187v-523h-187z" />
    <glyph glyph-name="idieresis" unicode="&#xef;" horiz-adv-x="317" 
d="M202 580v140h187v-140h-187zM-71 580v140h187v-140h-187zM65 0v523h188v-523h-188z" />
    <glyph glyph-name="eth" unicode="&#xf0;" horiz-adv-x="646" 
d="M155 0l-105 98v283l105 97h192l-63 89l-56 -40l-58 81l56 40l-29 42l135 94l28 -40l56 40l59 -81l-56 -40l177 -249v-316l-105 -98h-336zM272 93h103l35 36v221l-35 35h-103l-35 -35v-221z" />
    <glyph glyph-name="ntilde" unicode="&#xf1;" horiz-adv-x="686" 
d="M344 580l-47 63h-20l-14 -31v-25h-126l2 81l67 69h178l47 -59h20l14 26v27h126l-1 -79l-68 -72h-178zM65 0v523h187v-72l88 72h180l111 -112v-411h-187v385l-34 32h-54l-104 -88v-329h-187z" />
    <glyph glyph-name="ograve" unicode="&#xf2;" horiz-adv-x="648" 
d="M250 580l-150 157h182l105 -157h-137zM161 0l-111 111v300l111 111h326l111 -111v-300l-111 -111h-326zM272 104h104l35 36v243l-35 35h-104l-35 -35v-243z" />
    <glyph glyph-name="oacute" unicode="&#xf3;" horiz-adv-x="648" 
d="M263 580l105 157h182l-150 -157h-137zM161 0l-111 111v300l111 111h326l111 -111v-300l-111 -111h-326zM272 104h104l35 36v243l-35 35h-104l-35 -35v-243z" />
    <glyph glyph-name="ocircumflex" unicode="&#xf4;" horiz-adv-x="648" 
d="M112 580l113 152h198l113 -152h-142l-70 72l-71 -72h-141zM161 0l-111 111v300l111 111h326l111 -111v-300l-111 -111h-326zM272 104h104l35 36v243l-35 35h-104l-35 -35v-243z" />
    <glyph glyph-name="otilde" unicode="&#xf5;" horiz-adv-x="648" 
d="M308 580l-47 63h-20l-14 -31v-25h-126l2 81l67 69h178l47 -59h20l14 26v27h126l-1 -79l-68 -72h-178zM161 0l-111 111v300l111 111h326l111 -111v-300l-111 -111h-326zM272 104h104l35 36v243l-35 35h-104l-35 -35v-243z" />
    <glyph glyph-name="odieresis" unicode="&#xf6;" horiz-adv-x="648" 
d="M367 580v140h187v-140h-187zM94 580v140h187v-140h-187zM161 0l-111 111v300l111 111h326l111 -111v-300l-111 -111h-326zM272 104h104l35 36v243l-35 35h-104l-35 -35v-243z" />
    <glyph glyph-name="divide" unicode="&#xf7;" horiz-adv-x="638" 
d="M253 525v115h132v-115h-132zM55 302v132h528v-132h-528zM253 97v115h132v-115h-132z" />
    <glyph glyph-name="oslash" unicode="&#xf8;" horiz-adv-x="648" 
d="M161 0l-111 111v300l111 111h326l111 -111v-300l-111 -111h-326zM237 196l141 222h-106l-35 -35v-187zM272 104h104l35 36v186z" />
    <glyph glyph-name="ugrave" unicode="&#xf9;" horiz-adv-x="671" 
d="M257 580l-150 157h182l105 -157h-137zM166 -1l-111 111v412h187v-382l35 -35h41l101 86v331h187v-522h-187v70l-87 -71h-166z" />
    <glyph glyph-name="uacute" unicode="&#xfa;" horiz-adv-x="671" 
d="M270 580l105 157h182l-150 -157h-137zM166 -1l-111 111v412h187v-382l35 -35h41l101 86v331h187v-522h-187v70l-87 -71h-166z" />
    <glyph glyph-name="ucircumflex" unicode="&#xfb;" horiz-adv-x="671" 
d="M119 580l113 152h198l113 -152h-142l-70 72l-71 -72h-141zM166 -1l-111 111v412h187v-382l35 -35h41l101 86v331h187v-522h-187v70l-87 -71h-166z" />
    <glyph glyph-name="udieresis" unicode="&#xfc;" horiz-adv-x="671" 
d="M374 580v140h187v-140h-187zM101 580v140h187v-140h-187zM166 -1l-111 111v412h187v-382l35 -35h41l101 86v331h187v-523h-187v71l-87 -71h-166z" />
    <glyph glyph-name="yacute" unicode="&#xfd;" horiz-adv-x="657" 
d="M269 580l105 157h182l-150 -157h-137zM97 -187v127h296l35 35v103l-96 -78h-166l-111 111v411h187v-381l35 -35h41l110 94v322h176v-596l-112 -113h-395z" />
    <glyph glyph-name="thorn" unicode="&#xfe;" horiz-adv-x="673" 
d="M65 -187v924h187v-276l72 62h188l111 -112v-300l-111 -111h-187l-73 61v-248h-187zM338 107h79l24 25v257l-24 27h-80l-85 -75v-160z" />
    <glyph glyph-name="ydieresis" unicode="&#xff;" horiz-adv-x="657" 
d="M373 580v140h187v-140h-187zM100 580v140h187v-140h-187zM97 -187v127h296l35 35v103l-96 -78h-166l-111 111v411h187v-381l35 -35h41l110 94v322h176v-596l-112 -113h-395z" />
    <glyph glyph-name="Amacron" unicode="&#x100;" horiz-adv-x="736" 
d="M134 795v118h460v-118h-460zM0 0l216 737h304l216 -737h-198l-37 147h-266l-37 -147h-198zM272 291h192l-78 305h-36z" />
    <glyph glyph-name="amacron" unicode="&#x101;" horiz-adv-x="632" 
d="M72 580v118h460v-118h-460zM141 0l-111 111v111l111 111h249v35l-36 36h-262v118h373l112 -111v-411h-187v71l-69 -71h-180zM251 102h54l85 85v53h-139l-35 -35v-68z" />
    <glyph glyph-name="Abreve" unicode="&#x102;" horiz-adv-x="736" 
d="M256 795l-85 78v74h132v-45l14 -13h95l14 13v45h132v-74l-86 -78h-216zM0 0l216 737h304l216 -737h-198l-37 147h-266l-37 -147h-198zM272 291h192l-78 305h-36z" />
    <glyph glyph-name="abreve" unicode="&#x103;" horiz-adv-x="632" 
d="M194 580l-85 78v74h132v-45l14 -13h95l14 13v45h132v-74l-86 -78h-216zM141 0l-111 111v111l111 111h249v35l-36 36h-262v118h373l112 -111v-411h-187v71l-69 -71h-180zM251 102h54l85 85v53h-139l-35 -35v-68z" />
    <glyph glyph-name="Aogonek" unicode="&#x104;" horiz-adv-x="736" 
d="M566 -180l-73 66v81l45 33l-37 147h-266l-37 -147h-198l216 737h304l216 -737h-105l-35 -33v-27l19 -18h28v-102h-77zM272 291h192l-78 305h-36z" />
    <glyph glyph-name="aogonek" unicode="&#x105;" horiz-adv-x="632" 
d="M418 -180l-73 66v81l45 33v71l-69 -71h-180l-111 111v111l111 111h249v35l-36 36h-262v118h373l112 -111v-411h-94l-34 -33v-27l18 -18h28v-102h-77zM251 102h54l85 85v53h-139l-35 -35v-68z" />
    <glyph glyph-name="Cacute" unicode="&#x106;" horiz-adv-x="670" 
d="M290 795l105 157h182l-150 -157h-137zM161 0l-111 111v515l111 111h379l112 -111v-149h-182v83l-36 35h-161l-36 -35v-383l36 -35h167l37 35v84h181v-150l-111 -111h-386z" />
    <glyph glyph-name="cacute" unicode="&#x107;" horiz-adv-x="610" 
d="M255 580l105 157h182l-150 -157h-137zM161 0l-111 111v300l111 111h304l105 -96v-102h-187v59l-35 35h-76l-35 -35v-216l35 -35h287v-132h-398z" />
    <glyph glyph-name="Ccircumflex" unicode="&#x108;" horiz-adv-x="670" 
d="M139 795l113 152h198l113 -152h-142l-70 72l-71 -72h-141zM161 0l-111 111v515l111 111h379l112 -111v-149h-182v83l-36 35h-161l-36 -35v-383l36 -35h167l37 35v84h181v-150l-111 -111h-386z" />
    <glyph glyph-name="ccircumflex" unicode="&#x109;" horiz-adv-x="610" 
d="M104 580l113 152h198l113 -152h-142l-70 72l-71 -72h-141zM161 0l-111 111v300l111 111h304l105 -96v-102h-187v59l-35 35h-76l-35 -35v-216l35 -35h287v-132h-398z" />
    <glyph glyph-name="Cdotaccent" unicode="&#x10a;" horiz-adv-x="670" 
d="M258 795v140h187v-140h-187zM161 0l-111 111v515l111 111h379l112 -111v-149h-182v83l-36 35h-161l-36 -35v-383l36 -35h167l37 35v84h181v-150l-111 -111h-386z" />
    <glyph glyph-name="cdotaccent" unicode="&#x10b;" horiz-adv-x="610" 
d="M223 580v140h187v-140h-187zM161 0l-111 111v300l111 111h304l105 -96v-102h-187v59l-35 35h-76l-35 -35v-216l35 -35h287v-132h-398z" />
    <glyph glyph-name="Ccaron" unicode="&#x10c;" horiz-adv-x="670" 
d="M252 795l-113 152h141l71 -72l70 72h142l-113 -152h-198zM161 0l-111 111v515l111 111h379l112 -111v-149h-182v83l-36 35h-161l-36 -35v-383l36 -35h167l37 35v84h181v-150l-111 -111h-386z" />
    <glyph glyph-name="ccaron" unicode="&#x10d;" horiz-adv-x="610" 
d="M217 580l-113 152h141l71 -72l70 72h142l-113 -152h-198zM161 0l-111 111v300l111 111h304l105 -96v-102h-187v59l-35 35h-76l-35 -35v-216l35 -35h287v-132h-398z" />
    <glyph glyph-name="Dcaron" unicode="&#x10e;" horiz-adv-x="744" 
d="M252 795l-113 152h141l71 -72l70 72h142l-113 -152h-198zM70 0v737h481l153 -153v-431l-153 -153h-481zM257 142h213l53 53v347l-53 53h-213v-453z" />
    <glyph glyph-name="dcaron" unicode="&#x10f;" horiz-adv-x="676" 
d="M161 0l-111 111v300l111 112h188l75 -64v278h187v-737h-187v63l-76 -63h-187zM646 554l47 183h173l-114 -183h-106zM256 107h79l89 77v155l-88 77h-80l-24 -27v-257z" />
    <glyph glyph-name="Dcroat" unicode="&#x110;" horiz-adv-x="744" 
d="M70 0v316h-73v118h73v303h481l153 -153v-431l-153 -153h-481zM257 142h213l53 53v347l-53 53h-213v-161h102v-118h-102v-174z" />
    <glyph glyph-name="dcroat" unicode="&#x111;" horiz-adv-x="670" 
d="M161 0l-111 111v300l111 112h188l75 -64v96h-129v118h129v64h187v-64h47v-118h-47v-555h-187v63l-76 -63h-187zM256 107h79l89 77v155l-88 77h-80l-24 -27v-257z" />
    <glyph glyph-name="Emacron" unicode="&#x112;" horiz-adv-x="680" 
d="M118 795v118h460v-118h-460zM70 0v737h560v-152h-373v-136h336v-141h-336v-156h373v-152h-560z" />
    <glyph glyph-name="emacron" unicode="&#x113;" horiz-adv-x="621" 
d="M78 580v118h460v-118h-460zM161 0l-111 111v300l111 111h294l111 -111v-198h-329v-46l36 -35h285v-132h-397zM237 321h159v62l-36 35h-87l-36 -35v-62z" />
    <glyph glyph-name="Ebreve" unicode="&#x114;" horiz-adv-x="680" 
d="M243 795l-85 78v74h132v-45l14 -13h95l14 13v45h132v-74l-86 -78h-216zM70 0v737h560v-152h-373v-136h336v-141h-336v-156h373v-152h-560z" />
    <glyph glyph-name="ebreve" unicode="&#x115;" horiz-adv-x="621" 
d="M200 580l-85 78v74h132v-45l14 -13h95l14 13v45h132v-74l-86 -78h-216zM161 0l-111 111v300l111 111h294l111 -111v-198h-329v-46l36 -35h285v-132h-397zM237 321h159v62l-36 35h-87l-36 -35v-62z" />
    <glyph glyph-name="Edotaccent" unicode="&#x116;" horiz-adv-x="680" 
d="M258 795v140h187v-140h-187zM70 0v737h560v-152h-373v-136h336v-141h-336v-156h373v-152h-560z" />
    <glyph glyph-name="edotaccent" unicode="&#x117;" horiz-adv-x="621" 
d="M215 580v140h187v-140h-187zM161 0l-111 111v300l111 111h294l111 -111v-198h-329v-46l36 -35h285v-132h-397zM237 321h159v62l-36 35h-87l-36 -35v-62z" />
    <glyph glyph-name="Eogonek" unicode="&#x118;" horiz-adv-x="680" 
d="M566 -180l-73 66v81l45 33h-468v737h560v-152h-373v-136h336v-141h-336v-156h373v-152l-34 -33v-27l19 -18h15v-102h-64z" />
    <glyph glyph-name="eogonek" unicode="&#x119;" horiz-adv-x="628" 
d="M493 -180l-73 66v81l45 33h-304l-111 111v300l111 111h294l111 -111v-198h-329v-46l36 -35h285v-132l-34 -33v-27l18 -18h16v-102h-65zM237 321h159v62l-36 35h-87l-36 -35v-62z" />
    <glyph glyph-name="Ecaron" unicode="&#x11a;" horiz-adv-x="680" 
d="M252 795l-113 152h141l71 -72l70 72h142l-113 -152h-198zM70 0v737h560v-152h-373v-136h336v-141h-336v-156h373v-152h-560z" />
    <glyph glyph-name="ecaron" unicode="&#x11b;" horiz-adv-x="621" 
d="M209 580l-113 152h141l71 -72l70 72h142l-113 -152h-198zM161 0l-111 111v300l111 111h294l111 -111v-198h-329v-46l36 -35h285v-132h-397zM237 321h159v62l-36 35h-87l-36 -35v-62z" />
    <glyph glyph-name="Gcircumflex" unicode="&#x11c;" horiz-adv-x="818" 
d="M155 795l113 152h198l113 -152h-142l-70 72l-71 -72h-141zM161 0l-111 111v515l111 111h412l111 -111v-136l-182 1v69l-36 35h-193l-36 -35v-382l36 -36h157l96 85v26h-135v143h304v-396h-158v66l-74 -66h-302z" />
    <glyph glyph-name="gcircumflex" unicode="&#x11d;" horiz-adv-x="669" 
d="M137 580l113 152h198l113 -152h-142l-70 72l-71 -72h-141zM97 -187v126h296l35 35v93l-80 -67h-187l-111 111v300l111 112h188l79 -68v67h176v-596l-112 -113h-395zM256 107h79l93 80v148l-92 81h-80l-24 -27v-257z" />
    <glyph glyph-name="Gbreve" unicode="&#x11e;" horiz-adv-x="818" 
d="M259 795l-85 78v74h132v-45l14 -13h95l14 13v45h132v-74l-86 -78h-216zM161 0l-111 111v515l111 111h412l111 -111v-136l-182 1v69l-36 35h-193l-36 -35v-382l36 -36h157l96 85v26h-135v143h304v-396h-158v66l-74 -66h-302z" />
    <glyph glyph-name="gbreve" unicode="&#x11f;" horiz-adv-x="669" 
d="M240 580l-85 78v74h132v-45l14 -13h95l14 13v45h132v-74l-86 -78h-216zM97 -187v126h296l35 35v93l-80 -67h-187l-111 111v300l111 112h188l79 -68v67h176v-596l-112 -113h-395zM256 107h79l93 80v148l-92 81h-80l-24 -27v-257z" />
    <glyph glyph-name="Gdotaccent" unicode="&#x120;" horiz-adv-x="818" 
d="M274 795v140h187v-140h-187zM161 0l-111 111v515l111 111h412l111 -111v-136l-182 1v69l-36 35h-193l-36 -35v-382l36 -36h157l96 85v26h-135v143h304v-396h-158v66l-74 -66h-302z" />
    <glyph glyph-name="gdotaccent" unicode="&#x121;" horiz-adv-x="669" 
d="M255 580v140h187v-140h-187zM97 -187v126h296l35 35v93l-80 -67h-187l-111 111v300l111 112h188l79 -68v67h176v-596l-112 -113h-395zM256 107h79l93 80v148l-92 81h-80l-24 -27v-257z" />
    <glyph glyph-name="uni0122" unicode="&#x122;" horiz-adv-x="818" 
d="M161 0l-111 111v515l111 111h412l111 -111v-136l-182 1v69l-36 35h-193l-36 -35v-382l36 -36h157l96 85v26h-135v143h304v-396h-158v66l-74 -66h-302zM191 -240l47 183h173l-114 -183h-106z" />
    <glyph glyph-name="uni0123" unicode="&#x123;" horiz-adv-x="669" 
d="M256 580l114 183h106l-47 -183h-173zM97 -187v126h296l35 35v93l-80 -67h-187l-111 111v300l111 112h188l79 -68v67h176v-596l-112 -113h-395zM256 107h79l93 80v148l-92 81h-80l-24 -27v-257z" />
    <glyph glyph-name="Hcircumflex" unicode="&#x124;" horiz-adv-x="765" 
d="M171 795l113 152h198l113 -152h-142l-70 72l-71 -72h-141zM70 0v737h187v-274h251v274h187v-737h-187v317h-251v-317h-187z" />
    <glyph glyph-name="hcircumflex" unicode="&#x125;" horiz-adv-x="674" 
d="M65 795l113 152h198l113 -152h-142l-70 72l-71 -72h-141zM65 0v737h187v-276l76 62h180l111 -112v-411h-187v385l-34 32h-54l-92 -78v-339h-187z" />
    <glyph glyph-name="Hbar" unicode="&#x126;" horiz-adv-x="765" 
d="M70 0v537h-61v117h61v83h187v-83h251v83h187v-83h61v-117h-61v-537h-187v317h-251v-317h-187zM257 463h251v74h-251v-74z" />
    <glyph glyph-name="hbar" unicode="&#x127;" horiz-adv-x="674" 
d="M65 0v561h-50v118h50v58h187v-58h125v-118h-125v-100l76 62h180l111 -112v-411h-187v385l-34 32h-54l-92 -78v-339h-187z" />
    <glyph glyph-name="Itilde" unicode="&#x128;" horiz-adv-x="420" 
d="M194 795l-47 63h-20l-14 -31v-25h-126l2 81l67 69h178l47 -59h20l14 26v27h126l-1 -79l-68 -72h-178zM40 0v141h82l-2 455h-80v141h340v-141h-81l-2 -455h83v-141h-340z" />
    <glyph glyph-name="itilde" unicode="&#x129;" horiz-adv-x="317" 
d="M143 580l-47 63h-20l-14 -31v-25h-126l2 81l67 69h178l47 -59h20l14 26v27h126l-1 -79l-68 -72h-178zM65 0v523h187v-523h-187z" />
    <glyph glyph-name="Imacron" unicode="&#x12a;" horiz-adv-x="420" 
d="M-20 795v118h460v-118h-460zM40 0v141h82l-2 455h-80v141h340v-141h-81l-2 -455h83v-141h-340z" />
    <glyph glyph-name="imacron" unicode="&#x12b;" horiz-adv-x="317" 
d="M-71 580v118h460v-118h-460zM65 0v523h187v-523h-187z" />
    <glyph glyph-name="Ibreve" unicode="&#x12c;" horiz-adv-x="420" 
d="M102 795l-85 78v74h132v-45l14 -13h95l14 13v45h132v-74l-86 -78h-216zM40 0v141h82l-2 455h-80v141h340v-141h-81l-2 -455h83v-141h-340z" />
    <glyph glyph-name="ibreve" unicode="&#x12d;" horiz-adv-x="317" 
d="M50 580l-85 78v74h132v-45l14 -13h95l14 13v45h132v-74l-86 -78h-216zM65 0v523h187v-523h-187z" />
    <glyph glyph-name="Iogonek" unicode="&#x12e;" horiz-adv-x="420" 
d="M315 -180l-72 66v81l45 33h-248v141h82l-2 455h-80v141h340v-141h-81l-2 -455h83v-141l-34 -33v-27l19 -18h15v-102h-65z" />
    <glyph glyph-name="iogonek" unicode="&#x12f;" horiz-adv-x="317" 
d="M65 580v140h187v-140h-187zM188 -180l-73 66v81l45 33h-95v523h187v-523l-34 -33v-27l19 -18h15v-102h-64z" />
    <glyph glyph-name="Idotaccent" unicode="&#x130;" horiz-adv-x="420" 
d="M117 795v140h187v-140h-187zM40 0v141h82l-2 455h-80v141h340v-141h-81l-2 -455h83v-141h-340z" />
    <glyph glyph-name="dotlessi" unicode="&#x131;" horiz-adv-x="317" 
d="M65 0v523h187v-523h-187z" />
    <glyph glyph-name="Jcircumflex" unicode="&#x134;" horiz-adv-x="681" 
d="M306 795l113 152h198l113 -152h-142l-70 72l-71 -72h-141zM141 0l-111 111v204h187v-138l35 -35h137l35 35v560h187v-626l-111 -111h-359z" />
    <glyph glyph-name="jcircumflex" unicode="&#x135;" horiz-adv-x="331" 
d="M-41 580l113 152h198l113 -152h-142l-70 72l-71 -72h-141zM-25 -187v120h76l28 27v562h186l1 -612l-106 -97h-185z" />
    <glyph glyph-name="uni0136" unicode="&#x136;" horiz-adv-x="692" 
d="M70 0v737h187v-293l228 293h207l-260 -321l260 -416h-199l-166 285l-70 -86v-199h-187zM225 -240l47 183h173l-114 -183h-106z" />
    <glyph glyph-name="uni0137" unicode="&#x137;" horiz-adv-x="643" 
d="M65 0v737h187v-368l150 153h224l-215 -220l222 -302h-237l-112 173l-32 -34v-139h-187zM193 -240l47 183h173l-114 -183h-106z" />
    <glyph glyph-name="kgreenlandic" unicode="&#x138;" horiz-adv-x="643" 
d="M65 0v522h187v-153l150 153h224l-215 -220l222 -302h-237l-112 173l-32 -33v-140h-187z" />
    <glyph glyph-name="Lacute" unicode="&#x139;" horiz-adv-x="610" 
d="M102 795l105 157h182l-150 -157h-137zM70 0v737h187v-585h338v-152h-525z" />
    <glyph glyph-name="lacute" unicode="&#x13a;" horiz-adv-x="317" 
d="M98 795l105 157h182l-150 -157h-137zM65 0v737h187v-737h-187z" />
    <glyph glyph-name="uni013B" unicode="&#x13b;" horiz-adv-x="610" 
d="M70 0v737h187v-585h338v-152h-525zM193 -240l47 183h173l-114 -183h-106z" />
    <glyph glyph-name="uni013C" unicode="&#x13c;" horiz-adv-x="317" 
d="M65 0v737h187v-737h-187zM25 -240l47 183h173l-114 -183h-106z" />
    <glyph glyph-name="Lcaron" unicode="&#x13d;" horiz-adv-x="610" 
d="M70 0v737h187v-585h338v-152h-525zM361 554l47 183h173l-114 -183h-106z" />
    <glyph glyph-name="lcaron" unicode="&#x13e;" horiz-adv-x="317" 
d="M297 554l47 183h173l-114 -183h-106zM65 -1v737h187v-737h-187z" />
    <glyph glyph-name="Ldot" unicode="&#x13f;" horiz-adv-x="610" 
d="M70 0v737h187v-585h338v-152h-525zM385 331v157h169v-157h-169z" />
    <glyph glyph-name="ldot" unicode="&#x140;" horiz-adv-x="638" 
d="M65 0v737h187v-737h-187zM328 306v157h169v-157h-169z" />
    <glyph glyph-name="Lslash" unicode="&#x141;" horiz-adv-x="626" 
d="M86 0v263l-74 -32v129l74 32v345h187v-262l156 68v-129l-156 -68v-194h338v-152h-525z" />
    <glyph glyph-name="lslash" unicode="&#x142;" horiz-adv-x="354" 
d="M80 0v268l-66 -29v140l66 29v329h187v-247l72 31v-140l-72 -31v-350h-187z" />
    <glyph glyph-name="Nacute" unicode="&#x143;" horiz-adv-x="766" 
d="M312 795l105 157h182l-150 -157h-137zM70 0v737h204l248 -442v442h174v-737h-174l-242 432h-36v-432h-174z" />
    <glyph glyph-name="nacute" unicode="&#x144;" horiz-adv-x="686" 
d="M299 580l105 157h182l-150 -157h-137zM65 0v523h187v-72l88 72h180l111 -112v-411h-187v385l-34 32h-54l-104 -88v-329h-187z" />
    <glyph glyph-name="uni0145" unicode="&#x145;" horiz-adv-x="766" 
d="M70 0v737h204l248 -442v442h174v-737h-174l-242 432h-36v-432h-174zM234 -240l47 183h173l-114 -183h-106z" />
    <glyph glyph-name="uni0146" unicode="&#x146;" horiz-adv-x="686" 
d="M65 0v523h187v-72l88 72h180l111 -112v-411h-187v385l-34 32h-54l-104 -88v-329h-187zM235 -240l47 183h173l-114 -183h-106z" />
    <glyph glyph-name="Ncaron" unicode="&#x147;" horiz-adv-x="766" 
d="M274 795l-113 152h141l71 -72l70 72h142l-113 -152h-198zM70 0v737h204l248 -442v442h174v-737h-174l-242 432h-36v-432h-174z" />
    <glyph glyph-name="ncaron" unicode="&#x148;" horiz-adv-x="686" 
d="M261 580l-113 152h141l71 -72l70 72h142l-113 -152h-198zM65 0v523h187v-72l88 72h180l111 -112v-411h-187v385l-34 32h-54l-104 -88v-329h-187z" />
    <glyph glyph-name="Eng" unicode="&#x14a;" horiz-adv-x="766" 
d="M420 -187v109h75l27 27v51l-242 432h-36v-432h-174v737h204l248 -442v442h174v-827l-105 -97h-171z" />
    <glyph glyph-name="eng" unicode="&#x14b;" horiz-adv-x="686" 
d="M341 -187v109h78l25 27v436l-34 32h-54l-104 -88v-329h-187v523h187v-72l88 72h180l111 -112v-501l-105 -97h-185z" />
    <glyph glyph-name="Omacron" unicode="&#x14c;" 
d="M147 795v118h460v-118h-460zM161 0l-111 111v515l111 111h432l111 -111v-515l-111 -111h-432zM273 142h210l35 35v383l-37 35h-208l-36 -35v-383z" />
    <glyph glyph-name="omacron" unicode="&#x14d;" horiz-adv-x="648" 
d="M94 580v118h460v-118h-460zM161 0l-111 111v300l111 111h326l111 -111v-300l-111 -111h-326zM272 104h104l35 36v243l-35 35h-104l-35 -35v-243z" />
    <glyph glyph-name="Obreve" unicode="&#x14e;" 
d="M269 795l-85 78v74h132v-45l14 -13h95l14 13v45h132v-74l-86 -78h-216zM161 0l-111 111v515l111 111h432l111 -111v-515l-111 -111h-432zM273 142h210l35 35v383l-37 35h-208l-36 -35v-383z" />
    <glyph glyph-name="obreve" unicode="&#x14f;" horiz-adv-x="648" 
d="M216 580l-85 78v74h132v-45l14 -13h95l14 13v45h132v-74l-86 -78h-216zM161 0l-111 111v300l111 111h326l111 -111v-300l-111 -111h-326zM272 104h104l35 36v243l-35 35h-104l-35 -35v-243z" />
    <glyph glyph-name="Ohungarumlaut" unicode="&#x150;" 
d="M215 795l105 157h182l-150 -157h-137zM425 795l105 157h182l-150 -157h-137zM161 0l-111 111v515l111 111h432l111 -111v-515l-111 -111h-432zM273 142h210l35 35v383l-37 35h-208l-36 -35v-383z" />
    <glyph glyph-name="ohungarumlaut" unicode="&#x151;" horiz-adv-x="648" 
d="M162 580l105 157h182l-150 -157h-137zM372 580l105 157h182l-150 -157h-137zM161 0l-111 111v300l111 111h326l111 -111v-300l-111 -111h-326zM272 104h104l35 36v243l-35 35h-104l-35 -35v-243z" />
    <glyph glyph-name="OE" unicode="&#x152;" horiz-adv-x="1139" 
d="M161 0l-111 111v515l111 111h917v-152h-374v-136h337v-141h-337v-156h374v-152h-917zM273 142h210l35 35v383l-37 35h-208l-36 -35v-383z" />
    <glyph glyph-name="oe" unicode="&#x153;" horiz-adv-x="979" 
d="M161 0l-111 111v300l111 111h652l111 -111v-198h-328v-46l35 -35h286v-132h-756zM272 104h103l35 36v243l-35 35h-103l-35 -35v-243zM596 321h158v62l-35 35h-88l-35 -35v-62z" />
    <glyph glyph-name="Racute" unicode="&#x154;" horiz-adv-x="742" 
d="M288 795l105 157h182l-150 -157h-137zM70 0v737h502l112 -111v-264l-84 -84l112 -278h-188l-97 251h-170v-251h-187zM257 393h210l35 35v132l-35 35h-210v-202z" />
    <glyph glyph-name="racute" unicode="&#x155;" horiz-adv-x="453" 
d="M167 600l105 157h182l-150 -157h-137zM65 0v523h187v-82l89 81h102v-167h-150l-41 -37v-318h-187z" />
    <glyph glyph-name="uni0156" unicode="&#x156;" horiz-adv-x="742" 
d="M70 0v737h502l112 -111v-264l-84 -84l112 -278h-188l-97 251h-170v-251h-187zM257 393h210l35 35v132l-35 35h-210v-202zM253 -240l47 183h173l-114 -183h-106z" />
    <glyph glyph-name="uni0157" unicode="&#x157;" horiz-adv-x="453" 
d="M65 0v523h187v-82l89 81h102v-167h-150l-41 -37v-318h-187zM19 -240l47 183h173l-114 -183h-106z" />
    <glyph glyph-name="Rcaron" unicode="&#x158;" horiz-adv-x="742" 
d="M250 795l-113 152h141l71 -72l70 72h142l-113 -152h-198zM70 0v737h502l112 -111v-264l-84 -84l112 -278h-188l-97 251h-170v-251h-187zM257 393h210l35 35v132l-35 35h-210v-202z" />
    <glyph glyph-name="rcaron" unicode="&#x159;" horiz-adv-x="453" 
d="M155 580l-113 152h141l71 -72l70 72h142l-113 -152h-198zM65 0v523h187v-82l89 81h102v-167h-150l-41 -37v-318h-187z" />
    <glyph glyph-name="Sacute" unicode="&#x15a;" horiz-adv-x="722" 
d="M297 795l105 157h182l-150 -157h-137zM74 0v150h384l35 35v82l-35 35h-302l-111 112v212l111 111h482v-150h-374l-35 -35v-65l35 -35h302l111 -111v-230l-111 -111h-492z" />
    <glyph glyph-name="sacute" unicode="&#x15b;" horiz-adv-x="599" 
d="M239 580l105 157h182l-150 -157h-137zM67 0v129h281l28 27v21l-28 28h-201l-107 97v123l106 97h362v-128h-262l-25 -28v-14l27 -28h204l107 -97v-129l-106 -98h-386z" />
    <glyph glyph-name="Scircumflex" unicode="&#x15c;" horiz-adv-x="722" 
d="M146 795l113 152h198l113 -152h-142l-70 72l-71 -72h-141zM74 0v150h384l35 35v82l-35 35h-302l-111 112v212l111 111h482v-150h-374l-35 -35v-65l35 -35h302l111 -111v-230l-111 -111h-492z" />
    <glyph glyph-name="scircumflex" unicode="&#x15d;" horiz-adv-x="599" 
d="M88 580l113 152h198l113 -152h-142l-70 72l-71 -72h-141zM67 0v129h281l28 27v21l-28 28h-201l-107 97v123l106 97h362v-128h-262l-25 -28v-14l27 -28h204l107 -97v-129l-106 -98h-386z" />
    <glyph glyph-name="Scedilla" unicode="&#x15e;" horiz-adv-x="722" 
d="M268 -125l20 125h-214v150h384l35 35v82l-35 35h-302l-111 112v212l111 111h482v-150h-374l-35 -35v-65l35 -35h302l111 -111v-230l-111 -111h-127l-50 -125h-121z" />
    <glyph glyph-name="scedilla" unicode="&#x15f;" horiz-adv-x="599" 
d="M204 -125l20 125h-157v129h281l28 27v21l-28 28h-201l-107 97v123l106 97h362v-128h-262l-25 -28v-14l27 -28h204l107 -97v-129l-106 -98h-78l-50 -125h-121z" />
    <glyph glyph-name="Scaron" unicode="&#x160;" horiz-adv-x="722" 
d="M259 795l-113 152h141l71 -72l70 72h142l-113 -152h-198zM74 0v150h384l35 35v82l-35 35h-302l-111 112v212l111 111h482v-150h-374l-35 -35v-65l35 -35h302l111 -111v-230l-111 -111h-492z" />
    <glyph glyph-name="scaron" unicode="&#x161;" horiz-adv-x="599" 
d="M201 580l-113 152h141l71 -72l70 72h142l-113 -152h-198zM67 0v129h281l28 27v21l-28 28h-201l-107 97v123l106 97h362v-128h-262l-25 -28v-14l27 -28h204l107 -97v-129l-106 -98h-386z" />
    <glyph glyph-name="uni0162" unicode="&#x162;" horiz-adv-x="609" 
d="M227 -125l20 125h-36v585h-206v152h599v-152h-206v-585l-50 -125h-121z" />
    <glyph glyph-name="uni0163" unicode="&#x163;" horiz-adv-x="383" 
d="M168 -125l20 125h-15l-105 97v309h-38v116h45l57 149h123v-149h82v-116h-82v-260l27 -27h76v-119h-19l-50 -125h-121z" />
    <glyph glyph-name="Tcaron" unicode="&#x164;" horiz-adv-x="609" 
d="M206 795l-113 152h141l71 -72l70 72h142l-113 -152h-198zM211 0v585h-206v152h599v-152h-206v-585h-187z" />
    <glyph glyph-name="tcaron" unicode="&#x165;" horiz-adv-x="383" 
d="M297 554l47 183h173l-114 -183h-106zM173 0l-105 97v309h-38v116h45l57 149h123v-149h82v-116h-82v-260l27 -27h76v-119h-185z" />
    <glyph glyph-name="Tbar" unicode="&#x166;" horiz-adv-x="609" 
d="M211 0v285h-157v116h157v184h-206v152h599v-152h-206v-184h158v-116h-158v-285h-187z" />
    <glyph glyph-name="tbar" unicode="&#x167;" horiz-adv-x="383" 
d="M173 0l-105 97v139h-38v95h38v75h-38v116h45l57 149h123v-149h82v-116h-82v-75h82v-95h-82v-90l27 -27h76v-119h-185z" />
    <glyph glyph-name="Utilde" unicode="&#x168;" horiz-adv-x="777" 
d="M373 795l-47 63h-20l-14 -31v-25h-126l2 81l67 69h178l47 -59h20l14 26v27h126l-1 -79l-68 -72h-178zM174 0l-109 111v626h187v-560l35 -35h203l35 35v560h187v-626l-111 -111h-427z" />
    <glyph glyph-name="utilde" unicode="&#x169;" horiz-adv-x="671" 
d="M315 580l-47 63h-20l-14 -31v-25h-126l2 81l67 69h178l47 -59h20l14 26v27h126l-1 -79l-68 -72h-178zM166 -1l-111 111v412h187v-382l35 -35h41l101 86v331h187v-522h-187v70l-87 -71h-166z" />
    <glyph glyph-name="Umacron" unicode="&#x16a;" horiz-adv-x="777" 
d="M159 795v118h460v-118h-460zM174 0l-109 111v626h187v-560l35 -35h203l35 35v560h187v-626l-111 -111h-427z" />
    <glyph glyph-name="umacron" unicode="&#x16b;" horiz-adv-x="671" 
d="M101 580v118h460v-118h-460zM166 -1l-111 111v412h187v-382l35 -35h41l101 86v331h187v-522h-187v70l-87 -71h-166z" />
    <glyph glyph-name="Ubreve" unicode="&#x16c;" horiz-adv-x="777" 
d="M280 795l-85 78v74h132v-45l14 -13h95l14 13v45h132v-74l-86 -78h-216zM174 0l-109 111v626h187v-560l35 -35h203l35 35v560h187v-626l-111 -111h-427z" />
    <glyph glyph-name="ubreve" unicode="&#x16d;" horiz-adv-x="671" 
d="M223 580l-85 78v74h132v-45l14 -13h95l14 13v45h132v-74l-86 -78h-216zM166 -1l-111 111v412h187v-382l35 -35h41l101 86v331h187v-522h-187v70l-87 -71h-166z" />
    <glyph glyph-name="Uring" unicode="&#x16e;" horiz-adv-x="777" 
d="M331 795l-72 72v81l72 72h116l72 -72v-81l-72 -72h-116zM377 874h24l21 21v24l-21 21h-24l-21 -21v-24zM174 0l-109 111v626h187v-560l35 -35h203l35 35v560h187v-626l-111 -111h-427z" />
    <glyph glyph-name="uring" unicode="&#x16f;" horiz-adv-x="671" 
d="M273 580l-72 72v81l72 72h116l72 -72v-81l-72 -72h-116zM319 659h24l21 21v24l-21 21h-24l-21 -21v-24zM166 -1l-111 111v412h187v-382l35 -35h41l101 86v331h187v-522h-187v70l-87 -71h-166z" />
    <glyph glyph-name="Uhungarumlaut" unicode="&#x170;" horiz-adv-x="777" 
d="M227 795l105 157h182l-150 -157h-137zM437 795l105 157h182l-150 -157h-137zM174 0l-109 111v626h187v-560l35 -35h203l35 35v560h187v-626l-111 -111h-427z" />
    <glyph glyph-name="uhungarumlaut" unicode="&#x171;" horiz-adv-x="671" 
d="M169 580l105 157h182l-150 -157h-137zM379 580l105 157h182l-150 -157h-137zM166 -1l-111 111v412h187v-382l35 -35h41l101 86v331h187v-522h-187v70l-87 -71h-166z" />
    <glyph glyph-name="Uogonek" unicode="&#x172;" horiz-adv-x="777" 
d="M393 -180l-72 66v81l45 33h-192l-109 111v626h187v-560l35 -35h203l35 35v560h187v-626l-111 -111h-143l-34 -33v-27l19 -18h27v-102h-77z" />
    <glyph glyph-name="uogonek" unicode="&#x173;" horiz-adv-x="671" 
d="M541 -180l-73 66v81l45 33h-94v70l-87 -71h-166l-111 111v412h187v-382l35 -35h41l101 86v331h187v-522l-35 -33v-27l19 -18h16v-102h-65z" />
    <glyph glyph-name="Wcircumflex" unicode="&#x174;" horiz-adv-x="1010" 
d="M293 795l113 152h198l113 -152h-142l-70 72l-71 -72h-141zM156 0l-156 737h215l79 -596h35l80 596h192l80 -596h35l79 596h215l-156 -737h-297l-52 340l-52 -340h-297z" />
    <glyph glyph-name="wcircumflex" unicode="&#x175;" horiz-adv-x="960" 
d="M268 580l113 152h198l113 -152h-142l-70 72l-71 -72h-141zM147 0l-147 522h214l66 -381h35l66 381h198l66 -381h35l66 381h214l-147 -522h-284l-49 228l-49 -228h-284z" />
    <glyph glyph-name="Ycircumflex" unicode="&#x176;" horiz-adv-x="678" 
d="M127 795l113 152h198l113 -152h-142l-70 72l-71 -72h-141zM246 0v258l-74 64l-172 415h215l106 -339h36l106 339h215l-172 -415l-74 -64v-258h-186z" />
    <glyph glyph-name="ycircumflex" unicode="&#x177;" horiz-adv-x="657" 
d="M118 580l113 152h198l113 -152h-142l-70 72l-71 -72h-141zM97 -187v127h296l35 35v103l-96 -78h-166l-111 111v411h187v-381l35 -35h41l110 94v322h176v-596l-112 -113h-395z" />
    <glyph glyph-name="Ydieresis" unicode="&#x178;" horiz-adv-x="678" 
d="M382 795v140h187v-140h-187zM109 795v140h187v-140h-187zM246 0v258l-74 64l-172 415h215l106 -339h36l106 339h215l-172 -415l-74 -64v-258h-186z" />
    <glyph glyph-name="Zacute" unicode="&#x179;" horiz-adv-x="680" 
d="M295 795l105 157h182l-150 -157h-137zM45 0v157l340 393v35h-316v152h566v-157l-339 -393v-35h339v-152h-590z" />
    <glyph glyph-name="zacute" unicode="&#x17a;" horiz-adv-x="601" 
d="M241 580l105 157h182l-150 -157h-137zM45 0v124l246 271h-223v127h475v-127l-244 -267h252v-128h-506z" />
    <glyph glyph-name="Zdotaccent" unicode="&#x17b;" horiz-adv-x="680" 
d="M263 795v140h187v-140h-187zM45 0v157l340 393v35h-316v152h566v-157l-339 -393v-35h339v-152h-590z" />
    <glyph glyph-name="zdotaccent" unicode="&#x17c;" horiz-adv-x="601" 
d="M209 580v140h187v-140h-187zM45 0v124l246 271h-223v127h475v-127l-244 -267h252v-128h-506z" />
    <glyph glyph-name="Zcaron" unicode="&#x17d;" horiz-adv-x="680" 
d="M257 795l-113 152h141l71 -72l70 72h142l-113 -152h-198zM45 0v157l340 393v35h-316v152h566v-157l-339 -393v-35h339v-152h-590z" />
    <glyph glyph-name="zcaron" unicode="&#x17e;" horiz-adv-x="601" 
d="M203 580l-113 152h141l71 -72l70 72h142l-113 -152h-198zM45 0v124l246 271h-223v127h475v-127l-244 -267h252v-128h-506z" />
    <glyph glyph-name="uni018F" unicode="&#x18f;" 
d="M161 0l-111 111v338h467v100l-36 35h-422v153h534l111 -111v-515l-111 -111h-432zM273 153h208l36 35v120h-280v-120z" />
    <glyph glyph-name="florin" unicode="&#x192;" horiz-adv-x="373" 
d="M-45 -113v109h88l27 27v394h-42v105h42v117l106 98h197v-109h-88l-28 -27v-79h92v-105h-92v-432l-105 -98h-197z" />
    <glyph glyph-name="Ohorn" unicode="&#x1a0;" 
d="M161 0l-111 111v515l111 111h432l53 -53h51l18 118h180l-107 -206h-84v-485l-111 -111h-432zM273 142h210l35 35v383l-37 35h-208l-36 -35v-383z" />
    <glyph glyph-name="ohorn" unicode="&#x1a1;" horiz-adv-x="785" 
d="M161 0l-111 111v300l111 111h326l51 -51h49l18 118h180l-107 -206h-80v-272l-111 -111h-326zM272 104h104l35 36v243l-35 35h-104l-35 -35v-243z" />
    <glyph glyph-name="Uhorn" unicode="&#x1af;" horiz-adv-x="777" 
d="M174 0l-109 111v626h187v-560l35 -35h203l35 35v560h187v-53h49l18 118h180l-107 -206h-140v-485l-111 -111h-427z" />
    <glyph glyph-name="uhorn" unicode="&#x1b0;" horiz-adv-x="849" 
d="M166 -1l-111 111v412h187v-382l35 -35h41l101 86v331h187v-59h45l18 118h180l-107 -206h-136v-375h-187v70l-87 -71h-166z" />
    <glyph glyph-name="uni01C4" unicode="&#x1c4;" horiz-adv-x="1413" 
d="M990 795l-113 152h141l71 -72l70 72h142l-113 -152h-198zM70 0v737h481l153 -153v-431l-153 -153h-481zM778 0v157l340 393v35h-316v152h566v-157l-339 -393v-35h339v-152h-590zM257 142h213l53 53v347l-53 53h-213v-453z" />
    <glyph glyph-name="uni01C5" unicode="&#x1c5;" horiz-adv-x="1354" 
d="M70 0v737h481l153 -153v-431l-153 -153h-481zM956 580l-113 152h141l71 -72l70 72h142l-113 -152h-198zM257 142h213l53 53v347l-53 53h-213v-453zM798 0v124l246 271h-223v127h475v-127l-244 -267h252v-128h-506z" />
    <glyph glyph-name="uni01C6" unicode="&#x1c6;" horiz-adv-x="1293" 
d="M161 0l-111 111v300l111 112h188l75 -64v278h187v-737h-187v63l-76 -63h-187zM895 580l-113 152h141l71 -72l70 72h142l-113 -152h-198zM737 0v124l246 271h-223v127h475v-127l-244 -267h252v-128h-506zM256 107h79l89 77v155l-88 77h-80l-24 -27v-257z" />
    <glyph glyph-name="uni01C7" unicode="&#x1c7;" horiz-adv-x="1298" 
d="M758 0l-111 111v204h187v-138l35 -35h137l35 35v560h187v-626l-111 -111h-359zM70 0v737h187v-585h338v-152h-525z" />
    <glyph glyph-name="uni01C8" unicode="&#x1c8;" horiz-adv-x="954" 
d="M70 0v737h187v-585h338v-152h-525zM701 580v140h187v-140h-187zM598 -187v120h76l28 27v562h186l1 -612l-106 -97h-185z" />
    <glyph glyph-name="uni01C9" unicode="&#x1c9;" horiz-adv-x="686" 
d="M65 0v737h187v-737h-187zM433 580v140h187v-140h-187zM330 -187v120h76l28 27v562h186l1 -612l-106 -97h-185z" />
    <glyph glyph-name="uni01CA" unicode="&#x1ca;" horiz-adv-x="1457" 
d="M70 0v737h204l248 -442v442h174v-737h-174l-242 432h-36v-432h-174zM917 0l-111 111v204h187v-138l35 -35h137l35 35v560h187v-626l-111 -111h-359z" />
    <glyph glyph-name="uni01CB" unicode="&#x1cb;" horiz-adv-x="1116" 
d="M70 0v737h204l248 -442v442h174v-737h-174l-242 432h-36v-432h-174zM863 580v140h187v-140h-187zM760 -187v120h76l28 27v562h186l1 -612l-106 -97h-185z" />
    <glyph glyph-name="uni01CC" unicode="&#x1cc;" horiz-adv-x="998" 
d="M745 580v140h187v-140h-187zM642 -187v120h76l28 27v562h186l1 -612l-106 -97h-185zM65 -1v523h187v-72l88 72h180l111 -112v-411h-187v385l-34 32h-54l-104 -88v-329h-187z" />
    <glyph glyph-name="Gcaron" unicode="&#x1e6;" horiz-adv-x="818" 
d="M268 795l-113 152h141l71 -72l70 72h142l-113 -152h-198zM161 0l-111 111v515l111 111h412l111 -111v-136l-182 1v69l-36 35h-193l-36 -35v-382l36 -36h157l96 85v26h-135v143h304v-396h-158v66l-74 -66h-302z" />
    <glyph glyph-name="gcaron" unicode="&#x1e7;" horiz-adv-x="669" 
d="M250 580l-113 152h141l71 -72l70 72h142l-113 -152h-198zM97 -187v126h296l35 35v93l-80 -67h-187l-111 111v300l111 112h188l79 -68v67h176v-596l-112 -113h-395zM256 107h79l93 80v148l-92 81h-80l-24 -27v-257z" />
    <glyph glyph-name="uni01EA" unicode="&#x1ea;" 
d="M528 -180l-72 66v81l45 33h-340l-111 111v515l111 111h432l111 -111v-515l-145 -144v-27l19 -18h27v-102h-77zM273 142h210l35 35v383l-37 35h-208l-36 -35v-383z" />
    <glyph glyph-name="uni01EB" unicode="&#x1eb;" horiz-adv-x="648" 
d="M422 -180l-73 66v81l45 33h-233l-111 111v300l111 111h326l111 -111v-300l-145 -144v-27l18 -18h28v-102h-77zM272 104h104l35 36v243l-35 35h-104l-35 -35v-243z" />
    <glyph glyph-name="Aringacute" unicode="&#x1fa;" horiz-adv-x="736" 
d="M295 1052l105 157h182l-150 -157h-137zM306 795l-72 72v81l72 72h116l72 -72v-81l-72 -72h-116zM352 874h24l21 21v24l-21 21h-24l-21 -21v-24zM0 0l216 737h304l216 -737h-198l-37 147h-266l-37 -147h-198zM272 291h192l-78 305h-36z" />
    <glyph glyph-name="aringacute" unicode="&#x1fb;" horiz-adv-x="632" 
d="M232 837l105 157h182l-150 -157h-137zM244 580l-72 72v81l72 72h116l72 -72v-81l-72 -72h-116zM290 659h24l21 21v24l-21 21h-24l-21 -21v-24zM141 0l-111 111v111l111 111h249v35l-36 36h-262v118h373l112 -111v-411h-187v71l-69 -71h-180zM251 102h54l85 85v53h-139
l-35 -35v-68z" />
    <glyph glyph-name="AEacute" unicode="&#x1fc;" horiz-adv-x="1087" 
d="M303 795l105 157h182l-150 -157h-137zM0 0l216 737h821v-163h-469l35 -120h396v-152h-352l41 -139h349v-163h-499l-37 147h-266l-37 -147h-198zM272 291h192l-78 305h-36z" />
    <glyph glyph-name="aeacute" unicode="&#x1fd;" horiz-adv-x="961" 
d="M413 581l105 157h182l-150 -157h-137zM30 111v101l111 111h249v45l-36 36h-262v118h352l38 -38l38 38h275l111 -111v-201h-329v-43l36 -35h285v-132h-386l-70 71l-69 -71h-232zM577 323h159v60l-36 35h-87l-36 -35v-60zM216 137l35 -35h54l85 85v23h-139l-35 -35v-38z
" />
    <glyph glyph-name="Oslashacute" unicode="&#x1fe;" 
d="M316 795l105 157h182l-150 -157h-137zM161 0l-111 111v515l111 111h432l111 -111v-515l-111 -111h-432zM237 254l213 341h-177l-36 -35v-306zM304 142h179l35 35v307z" />
    <glyph glyph-name="oslashacute" unicode="&#x1ff;" horiz-adv-x="648" 
d="M263 580l105 157h182l-150 -157h-137zM161 0l-111 111v300l111 111h326l111 -111v-300l-111 -111h-326zM237 196l141 222h-106l-35 -35v-187zM272 104h104l35 36v186z" />
    <glyph glyph-name="uni0200" unicode="&#x200;" horiz-adv-x="736" 
d="M188 795l-150 157h182l105 -157h-137zM398 795l-150 157h182l105 -157h-137zM0 0l216 737h304l216 -737h-198l-37 147h-266l-37 -147h-198zM272 291h192l-78 305h-36z" />
    <glyph glyph-name="uni0201" unicode="&#x201;" horiz-adv-x="632" 
d="M126 580l-150 157h182l105 -157h-137zM336 580l-150 157h182l105 -157h-137zM141 0l-111 111v111l111 111h249v35l-36 36h-262v118h373l112 -111v-411h-187v71l-69 -71h-180zM251 102h54l85 85v53h-139l-35 -35v-68z" />
    <glyph glyph-name="uni0202" unicode="&#x202;" horiz-adv-x="736" 
d="M171 795v73l85 78h216l86 -78v-73h-132v45l-14 13h-95l-14 -13v-45h-132zM0 0l216 737h304l216 -737h-198l-37 147h-266l-37 -147h-198zM272 291h192l-78 305h-36z" />
    <glyph glyph-name="uni0203" unicode="&#x203;" horiz-adv-x="632" 
d="M109 580v73l85 78h216l86 -78v-73h-132v45l-14 13h-95l-14 -13v-45h-132zM141 0l-111 111v111l111 111h249v35l-36 36h-262v118h373l112 -111v-411h-187v71l-69 -71h-180zM251 102h54l85 85v53h-139l-35 -35v-68z" />
    <glyph glyph-name="uni0204" unicode="&#x204;" horiz-adv-x="680" 
d="M175 795l-150 157h182l105 -157h-137zM385 795l-150 157h182l105 -157h-137zM70 0v737h560v-152h-373v-136h336v-141h-336v-156h373v-152h-560z" />
    <glyph glyph-name="uni0205" unicode="&#x205;" horiz-adv-x="621" 
d="M132 580l-150 157h182l105 -157h-137zM342 580l-150 157h182l105 -157h-137zM161 0l-111 111v300l111 111h294l111 -111v-198h-329v-46l36 -35h285v-132h-397zM237 321h159v62l-36 35h-87l-36 -35v-62z" />
    <glyph glyph-name="uni0206" unicode="&#x206;" horiz-adv-x="680" 
d="M158 795v73l85 78h216l86 -78v-73h-132v45l-14 13h-95l-14 -13v-45h-132zM70 0v737h560v-152h-373v-136h336v-141h-336v-156h373v-152h-560z" />
    <glyph glyph-name="uni0207" unicode="&#x207;" horiz-adv-x="621" 
d="M115 580v73l85 78h216l86 -78v-73h-132v45l-14 13h-95l-14 -13v-45h-132zM161 0l-111 111v300l111 111h294l111 -111v-198h-329v-46l36 -35h285v-132h-397zM237 321h159v62l-36 35h-87l-36 -35v-62z" />
    <glyph glyph-name="uni0208" unicode="&#x208;" horiz-adv-x="420" 
d="M34 795l-150 157h182l105 -157h-137zM244 795l-150 157h182l105 -157h-137zM40 0v141h82l-2 455h-80v141h340v-141h-81l-2 -455h83v-141h-340z" />
    <glyph glyph-name="uni0209" unicode="&#x209;" horiz-adv-x="317" 
d="M-17 580l-150 157h182l105 -157h-137zM193 580l-150 157h182l105 -157h-137zM65 0v523h187v-523h-187z" />
    <glyph glyph-name="uni020A" unicode="&#x20a;" horiz-adv-x="420" 
d="M17 795v73l85 78h216l86 -78v-73h-132v45l-14 13h-95l-14 -13v-45h-132zM40 0v141h82l-2 455h-80v141h340v-141h-81l-2 -455h83v-141h-340z" />
    <glyph glyph-name="uni020B" unicode="&#x20b;" horiz-adv-x="317" 
d="M-35 580v73l85 78h216l86 -78v-73h-132v45l-14 13h-95l-14 -13v-45h-132zM65 0v523h187v-523h-187z" />
    <glyph glyph-name="uni020C" unicode="&#x20c;" 
d="M201 795l-150 157h182l105 -157h-137zM411 795l-150 157h182l105 -157h-137zM161 0l-111 111v515l111 111h432l111 -111v-515l-111 -111h-432zM273 142h210l35 35v383l-37 35h-208l-36 -35v-383z" />
    <glyph glyph-name="uni020D" unicode="&#x20d;" horiz-adv-x="648" 
d="M148 580l-150 157h182l105 -157h-137zM358 580l-150 157h182l105 -157h-137zM161 0l-111 111v300l111 111h326l111 -111v-300l-111 -111h-326zM272 104h104l35 36v243l-35 35h-104l-35 -35v-243z" />
    <glyph glyph-name="uni020E" unicode="&#x20e;" 
d="M184 795v73l85 78h216l86 -78v-73h-132v45l-14 13h-95l-14 -13v-45h-132zM161 0l-111 111v515l111 111h432l111 -111v-515l-111 -111h-432zM273 142h210l35 35v383l-37 35h-208l-36 -35v-383z" />
    <glyph glyph-name="uni020F" unicode="&#x20f;" horiz-adv-x="648" 
d="M131 580v73l85 78h216l86 -78v-73h-132v45l-14 13h-95l-14 -13v-45h-132zM161 0l-111 111v300l111 111h326l111 -111v-300l-111 -111h-326zM272 104h104l35 36v243l-35 35h-104l-35 -35v-243z" />
    <glyph glyph-name="uni0210" unicode="&#x210;" horiz-adv-x="742" 
d="M173 795l-150 157h182l105 -157h-137zM383 795l-150 157h182l105 -157h-137zM70 0v737h502l112 -111v-264l-84 -84l112 -278h-188l-97 251h-170v-251h-187zM257 393h210l35 35v132l-35 35h-210v-202z" />
    <glyph glyph-name="uni0211" unicode="&#x211;" horiz-adv-x="453" 
d="M78 580l-150 157h182l105 -157h-137zM288 580l-150 157h182l105 -157h-137zM65 0v523h187v-82l89 81h102v-167h-150l-41 -37v-318h-187z" />
    <glyph glyph-name="uni0212" unicode="&#x212;" horiz-adv-x="742" 
d="M156 795v73l85 78h216l86 -78v-73h-132v45l-14 13h-95l-14 -13v-45h-132zM70 0v737h502l112 -111v-264l-84 -84l112 -278h-188l-97 251h-170v-251h-187zM257 393h210l35 35v132l-35 35h-210v-202z" />
    <glyph glyph-name="uni0213" unicode="&#x213;" horiz-adv-x="453" 
d="M61 580v73l85 78h216l86 -78v-73h-132v45l-14 13h-95l-14 -13v-45h-132zM65 0v523h187v-82l89 81h102v-167h-150l-41 -37v-318h-187z" />
    <glyph glyph-name="uni0214" unicode="&#x214;" horiz-adv-x="777" 
d="M213 795l-150 157h182l105 -157h-137zM423 795l-150 157h182l105 -157h-137zM174 0l-109 111v626h187v-560l35 -35h203l35 35v560h187v-626l-111 -111h-427z" />
    <glyph glyph-name="uni0215" unicode="&#x215;" horiz-adv-x="671" 
d="M155 580l-150 157h182l105 -157h-137zM365 580l-150 157h182l105 -157h-137zM166 -1l-111 111v412h187v-382l35 -35h41l101 86v331h187v-522h-187v70l-87 -71h-166z" />
    <glyph glyph-name="uni0216" unicode="&#x216;" horiz-adv-x="777" 
d="M195 795v73l85 78h216l86 -78v-73h-132v45l-14 13h-95l-14 -13v-45h-132zM174 0l-109 111v626h187v-560l35 -35h203l35 35v560h187v-626l-111 -111h-427z" />
    <glyph glyph-name="uni0217" unicode="&#x217;" horiz-adv-x="671" 
d="M138 580v73l85 78h216l86 -78v-73h-132v45l-14 13h-95l-14 -13v-45h-132zM166 -1l-111 111v412h187v-382l35 -35h41l101 86v331h187v-522h-187v70l-87 -71h-166z" />
    <glyph glyph-name="uni0218" unicode="&#x218;" horiz-adv-x="722" 
d="M74 0v150h384l35 35v82l-35 35h-302l-111 112v212l111 111h482v-150h-374l-35 -35v-65l35 -35h302l111 -111v-230l-111 -111h-492zM228 -240l47 183h173l-114 -183h-106z" />
    <glyph glyph-name="uni0219" unicode="&#x219;" horiz-adv-x="599" 
d="M67 0v129h281l28 27v21l-28 28h-201l-107 97v123l106 97h362v-128h-262l-25 -28v-14l27 -28h204l107 -97v-129l-106 -98h-386zM164 -240l47 183h173l-114 -183h-106z" />
    <glyph glyph-name="uni021A" unicode="&#x21a;" horiz-adv-x="609" 
d="M211 0v585h-206v152h599v-152h-206v-585h-187zM169 -240l47 183h173l-114 -183h-106z" />
    <glyph glyph-name="uni021B" unicode="&#x21b;" horiz-adv-x="383" 
d="M173 0l-105 97v309h-38v116h45l57 149h123v-149h82v-116h-82v-260l27 -27h76v-119h-185zM123 -240l47 183h173l-114 -183h-106z" />
    <glyph glyph-name="uni022A" unicode="&#x22a;" 
d="M147 967v118h460v-118h-460zM420 795v140h187v-140h-187zM147 795v140h187v-140h-187zM161 0l-111 111v515l111 111h432l111 -111v-515l-111 -111h-432zM273 142h210l35 35v383l-37 35h-208l-36 -35v-383z" />
    <glyph glyph-name="uni022B" unicode="&#x22b;" horiz-adv-x="648" 
d="M94 752v118h460v-118h-460zM367 580v140h187v-140h-187zM94 580v140h187v-140h-187zM161 0l-111 111v300l111 111h326l111 -111v-300l-111 -111h-326zM272 104h104l35 36v243l-35 35h-104l-35 -35v-243z" />
    <glyph glyph-name="uni022C" unicode="&#x22c;" 
d="M147 1001v118h460v-118h-460zM357 795l-47 63h-20l-14 -31v-25h-126l2 81l67 69h178l47 -59h20l14 26v27h126l-1 -79l-68 -72h-178zM161 0l-111 111v515l111 111h432l111 -111v-515l-111 -111h-432zM273 142h210l35 35v383l-37 35h-208l-36 -35v-383z" />
    <glyph glyph-name="uni022D" unicode="&#x22d;" horiz-adv-x="648" 
d="M94 769v118h460v-118h-460zM308 580l-47 63h-20l-14 -31v-25h-126l2 81l67 69h178l47 -59h20l14 26v27h126l-1 -79l-68 -72h-178zM161 0l-111 111v300l111 111h326l111 -111v-300l-111 -111h-326zM272 104h104l35 36v243l-35 35h-104l-35 -35v-243z" />
    <glyph glyph-name="uni0230" unicode="&#x230;" 
d="M147 967v118h460v-118h-460zM284 795v140h187v-140h-187zM161 0l-111 111v515l111 111h432l111 -111v-515l-111 -111h-432zM273 142h210l35 35v383l-37 35h-208l-36 -35v-383z" />
    <glyph glyph-name="uni0231" unicode="&#x231;" horiz-adv-x="648" 
d="M94 752v118h460v-118h-460zM231 580v140h187v-140h-187zM161 0l-111 111v300l111 111h326l111 -111v-300l-111 -111h-326zM272 104h104l35 36v243l-35 35h-104l-35 -35v-243z" />
    <glyph glyph-name="uni0232" unicode="&#x232;" horiz-adv-x="678" 
d="M109 795v118h460v-118h-460zM246 0v258l-74 64l-172 415h215l106 -339h36l106 339h215l-172 -415l-74 -64v-258h-186z" />
    <glyph glyph-name="uni0233" unicode="&#x233;" horiz-adv-x="657" 
d="M100 580v118h460v-118h-460zM97 -187v127h296l35 35v103l-96 -78h-166l-111 111v411h187v-381l35 -35h41l110 94v322h176v-596l-112 -113h-395z" />
    <glyph glyph-name="uni0237" unicode="&#x237;" horiz-adv-x="331" 
d="M-25 -187v120h76l28 27v562h186l1 -612l-106 -97h-185z" />
    <glyph glyph-name="uni0259" unicode="&#x259;" horiz-adv-x="621" 
d="M166 0l-111 111v198h329v46l-36 35h-285v132h397l111 -111v-300l-111 -111h-294zM261 104h87l36 35v62h-159v-62z" />
    <glyph glyph-name="uni02B9" unicode="&#x2b9;" horiz-adv-x="321" 
d="M50 470l41 267h180l-108 -267h-113z" />
    <glyph glyph-name="uni02BA" unicode="&#x2ba;" horiz-adv-x="640" 
d="M262 470l41 267h180l-108 -267h-113zM50 470l41 267h180l-108 -267h-113z" />
    <glyph glyph-name="uni02BC" unicode="&#x2bc;" horiz-adv-x="321" 
d="M50 470l41 267h180l-108 -267h-113z" />
    <glyph glyph-name="circumflex" unicode="&#x2c6;" horiz-adv-x="507" 
d="M50 795l113 152h198l113 -152h-142l-70 72l-71 -72h-141z" />
    <glyph glyph-name="caron" unicode="&#x2c7;" horiz-adv-x="507" 
d="M163 795l-113 152h141l71 -72l70 72h142l-113 -152h-198z" />
    <glyph glyph-name="breve" unicode="&#x2d8;" horiz-adv-x="470" 
d="M135 795l-85 78v74h132v-45l14 -13h95l14 13v45h132v-74l-86 -78h-216z" />
    <glyph glyph-name="dotaccent" unicode="&#x2d9;" horiz-adv-x="152" 
d="M-90 795v140h187v-140h-187z" />
    <glyph glyph-name="ring" unicode="&#x2da;" horiz-adv-x="343" 
d="M122 795l-72 72v81l72 72h116l72 -72v-81l-72 -72h-116zM168 874h24l21 21v24l-21 21h-24l-21 -21v-24z" />
    <glyph glyph-name="ogonek" unicode="&#x2db;" horiz-adv-x="222" 
d="M123 -180l-73 66v81l45 33h93l-34 -33v-27l18 -18h28v-102h-77z" />
    <glyph glyph-name="tilde" unicode="&#x2dc;" horiz-adv-x="541" 
d="M257 795l-47 63h-20l-14 -31v-25h-126l2 81l67 69h178l47 -59h20l14 26v27h126l-1 -79l-68 -72h-178z" />
    <glyph glyph-name="hungarumlaut" unicode="&#x2dd;" horiz-adv-x="580" 
d="M260 795l105 157h182l-150 -157h-137zM50 795l105 157h182l-150 -157h-137z" />
    <glyph glyph-name="gravecomb" unicode="&#x300;" horiz-adv-x="0" 
d="M150 795l-150 157h182l105 -157h-137z" />
    <glyph glyph-name="acutecomb" unicode="&#x301;" horiz-adv-x="0" 
d="M-310 795l105 157h182l-150 -157h-137z" />
    <glyph glyph-name="uni0302" unicode="&#x302;" horiz-adv-x="0" 
d="M50 795l113 152h198l113 -152h-142l-70 72l-71 -72h-141z" />
    <glyph glyph-name="tildecomb" unicode="&#x303;" horiz-adv-x="0" 
d="M-288 795l-47 63h-20l-14 -31v-25h-126l2 81l67 69h178l47 -59h20l14 26v27h126l-1 -79l-68 -72h-178z" />
    <glyph glyph-name="uni0304" unicode="&#x304;" horiz-adv-x="0" 
d="M-464 795v118h460v-118h-460z" />
    <glyph glyph-name="uni0306" unicode="&#x306;" horiz-adv-x="0" 
d="M-335 795l-85 78v74h132v-45l14 -13h95l14 13v45h132v-74l-86 -78h-216z" />
    <glyph glyph-name="uni0307" unicode="&#x307;" horiz-adv-x="0" 
d="M0 795v140h187v-140h-187z" />
    <glyph glyph-name="uni0308" unicode="&#x308;" horiz-adv-x="0" 
d="M277 795v140h187v-140h-187zM4 795v140h187v-140h-187z" />
    <glyph glyph-name="hookabovecomb" unicode="&#x309;" horiz-adv-x="0" 
d="M-233 795v80l75 46v29h-32v-29h-113v60l43 40h184l43 -40v-103l-73 -42v-41h-127z" />
    <glyph glyph-name="uni030A" unicode="&#x30a;" horiz-adv-x="0" 
d="M-221 795l-72 72v81l72 72h116l72 -72v-81l-72 -72h-116zM-175 874h24l21 21v24l-21 21h-24l-21 -21v-24z" />
    <glyph glyph-name="uni030B" unicode="&#x30b;" horiz-adv-x="0" 
d="M-319 795l105 157h182l-150 -157h-137zM-529 795l105 157h182l-150 -157h-137z" />
    <glyph glyph-name="uni030C" unicode="&#x30c;" horiz-adv-x="0" 
d="M-344 795l-113 152h141l71 -72l70 72h142l-113 -152h-198z" />
    <glyph glyph-name="uni030F" unicode="&#x30f;" horiz-adv-x="0" 
d="M-170 795l-150 157h182l105 -157h-137zM-380 795l-150 157h182l105 -157h-137z" />
    <glyph glyph-name="uni0311" unicode="&#x311;" horiz-adv-x="0" 
d="M-420 795v73l85 78h216l86 -78v-73h-132v45l-14 13h-95l-14 -13v-45h-132z" />
    <glyph glyph-name="uni0312" unicode="&#x312;" horiz-adv-x="0" 
d="M50 795l114 183h106l-47 -183h-173z" />
    <glyph glyph-name="uni031B" unicode="&#x31b;" horiz-adv-x="0" 
d="M50 572v88h64l18 118h180l-107 -206h-155z" />
    <glyph glyph-name="dotbelowcomb" unicode="&#x323;" horiz-adv-x="0" 
d="M-90 -197v140h187v-140h-187z" />
    <glyph glyph-name="uni0324" unicode="&#x324;" horiz-adv-x="0" 
d="M183 -197v140h187v-140h-187zM-90 -197v140h187v-140h-187z" />
    <glyph glyph-name="uni0326" unicode="&#x326;" horiz-adv-x="0" 
d="M50 -240l47 183h173l-114 -183h-106z" />
    <glyph glyph-name="uni0327" unicode="&#x327;" horiz-adv-x="0" 
d="M50 -125l20 125h151l-50 -125h-121z" />
    <glyph glyph-name="uni0328" unicode="&#x328;" horiz-adv-x="0" 
d="M123 -180l-73 66v81l45 33h93l-34 -33v-27l18 -18h28v-102h-77z" />
    <glyph glyph-name="uni032E" unicode="&#x32e;" horiz-adv-x="0" 
d="M135 -192l-85 78v74h132v-45l14 -13h95l14 13v45h132v-74l-86 -78h-216z" />
    <glyph glyph-name="uni0331" unicode="&#x331;" horiz-adv-x="0" 
d="M50 -175v118h460v-118h-460z" />
    <glyph glyph-name="uni0335" unicode="&#x335;" horiz-adv-x="0" 
d="M50 220v118h362v-118h-362z" />
    <glyph glyph-name="Wgrave" unicode="&#x1e80;" horiz-adv-x="1010" 
d="M431 795l-150 157h182l105 -157h-137zM156 0l-156 737h215l79 -596h35l80 596h192l80 -596h35l79 596h215l-156 -737h-297l-52 340l-52 -340h-297z" />
    <glyph glyph-name="wgrave" unicode="&#x1e81;" horiz-adv-x="960" 
d="M406 580l-150 157h182l105 -157h-137zM147 0l-147 522h214l66 -381h35l66 381h198l66 -381h35l66 381h214l-147 -522h-284l-49 228l-49 -228h-284z" />
    <glyph glyph-name="Wacute" unicode="&#x1e82;" horiz-adv-x="1010" 
d="M444 795l105 157h182l-150 -157h-137zM156 0l-156 737h215l79 -596h35l80 596h192l80 -596h35l79 596h215l-156 -737h-297l-52 340l-52 -340h-297z" />
    <glyph glyph-name="wacute" unicode="&#x1e83;" horiz-adv-x="960" 
d="M419 580l105 157h182l-150 -157h-137zM147 0l-147 522h214l66 -381h35l66 381h198l66 -381h35l66 381h214l-147 -522h-284l-49 228l-49 -228h-284z" />
    <glyph glyph-name="Wdieresis" unicode="&#x1e84;" horiz-adv-x="1010" 
d="M548 795v140h187v-140h-187zM275 795v140h187v-140h-187zM156 0l-156 737h215l79 -596h35l80 596h192l80 -596h35l79 596h215l-156 -737h-297l-52 340l-52 -340h-297z" />
    <glyph glyph-name="wdieresis" unicode="&#x1e85;" horiz-adv-x="960" 
d="M523 580v140h187v-140h-187zM250 580v140h187v-140h-187zM147 0l-147 522h214l66 -381h35l66 381h198l66 -381h35l66 381h214l-147 -522h-284l-49 228l-49 -228h-284z" />
    <glyph glyph-name="uni1E9E" unicode="&#x1e9e;" horiz-adv-x="735" 
d="M70 0v639l105 98h353l104 -98v-108l-81 -99l139 -128v-206l-104 -98h-263v131h123l35 37v118l-35 35h-108v112l108 138l-35 35h-101l-35 -35v-571h-205z" />
    <glyph glyph-name="uni1EA0" unicode="&#x1ea0;" horiz-adv-x="736" 
d="M0 0l216 737h304l216 -737h-198l-37 147h-266l-37 -147h-198zM272 291h192l-78 305h-36zM271 -197v140h187v-140h-187z" />
    <glyph glyph-name="uni1EA1" unicode="&#x1ea1;" horiz-adv-x="632" 
d="M141 0l-111 111v111l111 111h249v35l-36 36h-262v118h373l112 -111v-411h-187v71l-69 -71h-180zM251 102h54l85 85v53h-139l-35 -35v-68zM216 -197v140h187v-140h-187z" />
    <glyph glyph-name="uni1EA2" unicode="&#x1ea2;" horiz-adv-x="736" 
d="M299 795v80l75 46v29h-32v-29h-113v60l43 40h184l43 -40v-103l-73 -42v-41h-127zM0 0l216 737h304l216 -737h-198l-37 147h-266l-37 -147h-198zM272 291h192l-78 305h-36z" />
    <glyph glyph-name="uni1EA3" unicode="&#x1ea3;" horiz-adv-x="632" 
d="M237 580v80l75 46v29h-32v-29h-113v60l43 40h184l43 -40v-103l-73 -42v-41h-127zM141 0l-111 111v111l111 111h249v35l-36 36h-262v118h373l112 -111v-411h-187v71l-69 -71h-180zM251 102h54l85 85v53h-139l-35 -35v-68z" />
    <glyph glyph-name="uni1EA4" unicode="&#x1ea4;" horiz-adv-x="736" 
d="M561 877l105 157h182l-150 -157h-137zM152 795l113 152h198l113 -152h-141l-71 72l-70 -72h-142zM0 0l216 737h304l216 -737h-198l-37 147h-266l-37 -147h-198zM272 291h192l-78 305h-36z" />
    <glyph glyph-name="uni1EA5" unicode="&#x1ea5;" horiz-adv-x="632" 
d="M499 662l105 157h182l-150 -157h-137zM90 580l113 152h198l113 -152h-141l-71 72l-70 -72h-142zM141 0l-111 111v111l111 111h249v35l-36 36h-262v118h373l112 -111v-411h-187v71l-69 -71h-180zM251 102h54l85 85v53h-139l-35 -35v-68z" />
    <glyph glyph-name="uni1EA6" unicode="&#x1ea6;" horiz-adv-x="736" 
d="M30 877l-150 157h182l105 -157h-137zM152 795l113 152h198l113 -152h-142l-70 72l-71 -72h-141zM0 0l216 737h304l216 -737h-198l-37 147h-266l-37 -147h-198zM272 291h192l-78 305h-36z" />
    <glyph glyph-name="uni1EA7" unicode="&#x1ea7;" horiz-adv-x="632" 
d="M-32 662l-150 157h182l105 -157h-137zM90 580l113 152h198l113 -152h-142l-70 72l-71 -72h-141zM141 0l-111 111v111l111 111h249v35l-36 36h-262v118h373l112 -111v-411h-187v71l-69 -71h-180zM251 102h54l85 85v53h-139l-35 -35v-68z" />
    <glyph glyph-name="uni1EA8" unicode="&#x1ea8;" horiz-adv-x="736" 
d="M560 877v80l75 46v29h-32v-29h-113v60l43 40h184l43 -40v-103l-73 -42v-41h-127zM152 795l113 152h198l113 -152h-142l-70 72l-71 -72h-141zM0 0l216 737h304l216 -737h-198l-37 147h-266l-37 -147h-198zM272 291h192l-78 305h-36z" />
    <glyph glyph-name="uni1EA9" unicode="&#x1ea9;" horiz-adv-x="632" 
d="M498 662v80l75 46v29h-32v-29h-113v60l43 40h184l43 -40v-103l-73 -42v-41h-127zM90 580l113 152h198l113 -152h-142l-70 72l-71 -72h-141zM141 0l-111 111v111l111 111h249v35l-36 36h-262v118h373l112 -111v-411h-187v71l-69 -71h-180zM251 102h54l85 85v53h-139
l-35 -35v-68z" />
    <glyph glyph-name="uni1EAA" unicode="&#x1eaa;" horiz-adv-x="736" 
d="M353 979l-47 63h-20l-14 -31v-25h-126l2 81l67 69h178l47 -59h20l14 26v27h126l-1 -79l-68 -72h-178zM152 795l113 152h198l113 -152h-142l-70 72l-71 -72h-141zM0 0l216 737h304l216 -737h-198l-37 147h-266l-37 -147h-198zM272 291h192l-78 305h-36z" />
    <glyph glyph-name="uni1EAB" unicode="&#x1eab;" horiz-adv-x="632" 
d="M291 764l-47 63h-20l-14 -31v-25h-126l2 81l67 69h178l47 -59h20l14 26v27h126l-1 -79l-68 -72h-178zM90 580l113 152h198l113 -152h-142l-70 72l-71 -72h-141zM141 0l-111 111v111l111 111h249v35l-36 36h-262v118h373l112 -111v-411h-187v71l-69 -71h-180zM251 102h54
l85 85v53h-139l-35 -35v-68z" />
    <glyph glyph-name="uni1EAC" unicode="&#x1eac;" horiz-adv-x="736" 
d="M152 795l113 152h198l113 -152h-142l-70 72l-71 -72h-141zM0 0l216 737h304l216 -737h-198l-37 147h-266l-37 -147h-198zM272 291h192l-78 305h-36zM271 -197v140h187v-140h-187z" />
    <glyph glyph-name="uni1EAD" unicode="&#x1ead;" horiz-adv-x="632" 
d="M90 580l113 152h198l113 -152h-142l-70 72l-71 -72h-141zM141 0l-111 111v111l111 111h249v35l-36 36h-262v118h373l112 -111v-411h-187v71l-69 -71h-180zM251 102h54l85 85v53h-139l-35 -35v-68zM216 -197v140h187v-140h-187z" />
    <glyph glyph-name="uni1EAE" unicode="&#x1eae;" horiz-adv-x="736" 
d="M299 979l105 157h182l-150 -157h-137zM256 795l-85 78v74h132v-45l14 -13h95l14 13v45h132v-74l-86 -78h-216zM0 0l216 737h304l216 -737h-198l-37 147h-266l-37 -147h-198zM272 291h192l-78 305h-36z" />
    <glyph glyph-name="uni1EAF" unicode="&#x1eaf;" horiz-adv-x="632" 
d="M237 764l105 157h182l-150 -157h-137zM194 580l-85 78v74h132v-45l14 -13h95l14 13v45h132v-74l-86 -78h-216zM141 0l-111 111v111l111 111h249v35l-36 36h-262v118h373l112 -111v-411h-187v71l-69 -71h-180zM251 102h54l85 85v53h-139l-35 -35v-68z" />
    <glyph glyph-name="uni1EB0" unicode="&#x1eb0;" horiz-adv-x="736" 
d="M285 979l-150 157h182l105 -157h-137zM256 795l-85 78v74h132v-45l14 -13h95l14 13v45h132v-74l-86 -78h-216zM0 0l216 737h304l216 -737h-198l-37 147h-266l-37 -147h-198zM272 291h192l-78 305h-36z" />
    <glyph glyph-name="uni1EB1" unicode="&#x1eb1;" horiz-adv-x="632" 
d="M223 764l-150 157h182l105 -157h-137zM194 580l-85 78v74h132v-45l14 -13h95l14 13v45h132v-74l-86 -78h-216zM141 0l-111 111v111l111 111h249v35l-36 36h-262v118h373l112 -111v-411h-187v71l-69 -71h-180zM251 102h54l85 85v53h-139l-35 -35v-68z" />
    <glyph glyph-name="uni1EB2" unicode="&#x1eb2;" horiz-adv-x="736" 
d="M299 979v80l75 46v29h-32v-29h-113v60l43 40h184l43 -40v-103l-73 -42v-41h-127zM256 795l-85 78v74h132v-45l14 -13h95l14 13v45h132v-74l-86 -78h-216zM0 0l216 737h304l216 -737h-198l-37 147h-266l-37 -147h-198zM272 291h192l-78 305h-36z" />
    <glyph glyph-name="uni1EB3" unicode="&#x1eb3;" horiz-adv-x="632" 
d="M237 764v80l75 46v29h-32v-29h-113v60l43 40h184l43 -40v-103l-73 -42v-41h-127zM194 580l-85 78v74h132v-45l14 -13h95l14 13v45h132v-74l-86 -78h-216zM141 0l-111 111v111l111 111h249v35l-36 36h-262v118h373l112 -111v-411h-187v71l-69 -71h-180zM251 102h54l85 85
v53h-139l-35 -35v-68z" />
    <glyph glyph-name="uni1EB4" unicode="&#x1eb4;" horiz-adv-x="736" 
d="M353 979l-47 63h-20l-14 -31v-25h-126l2 81l67 69h178l47 -59h20l14 26v27h126l-1 -79l-68 -72h-178zM256 795l-85 78v74h132v-45l14 -13h95l14 13v45h132v-74l-86 -78h-216zM0 0l216 737h304l216 -737h-198l-37 147h-266l-37 -147h-198zM272 291h192l-78 305h-36z" />
    <glyph glyph-name="uni1EB5" unicode="&#x1eb5;" horiz-adv-x="632" 
d="M291 764l-47 63h-20l-14 -31v-25h-126l2 81l67 69h178l47 -59h20l14 26v27h126l-1 -79l-68 -72h-178zM194 580l-85 78v74h132v-45l14 -13h95l14 13v45h132v-74l-86 -78h-216zM141 0l-111 111v111l111 111h249v35l-36 36h-262v118h373l112 -111v-411h-187v71l-69 -71h-180
zM251 102h54l85 85v53h-139l-35 -35v-68z" />
    <glyph glyph-name="uni1EB6" unicode="&#x1eb6;" horiz-adv-x="736" 
d="M256 795l-85 78v74h132v-45l14 -13h95l14 13v45h132v-74l-86 -78h-216zM0 0l216 737h304l216 -737h-198l-37 147h-266l-37 -147h-198zM272 291h192l-78 305h-36zM271 -197v140h187v-140h-187z" />
    <glyph glyph-name="uni1EB7" unicode="&#x1eb7;" horiz-adv-x="632" 
d="M194 580l-85 78v74h132v-45l14 -13h95l14 13v45h132v-74l-86 -78h-216zM141 0l-111 111v111l111 111h249v35l-36 36h-262v118h373l112 -111v-411h-187v71l-69 -71h-180zM251 102h54l85 85v53h-139l-35 -35v-68zM216 -197v140h187v-140h-187z" />
    <glyph glyph-name="uni1EB8" unicode="&#x1eb8;" horiz-adv-x="680" 
d="M70 0v737h560v-152h-373v-136h336v-141h-336v-156h373v-152h-560zM258 -197v140h187v-140h-187z" />
    <glyph glyph-name="uni1EB9" unicode="&#x1eb9;" horiz-adv-x="621" 
d="M161 0l-111 111v300l111 111h294l111 -111v-198h-329v-46l36 -35h285v-132h-397zM237 321h159v62l-36 35h-87l-36 -35v-62zM248 -197v140h187v-140h-187z" />
    <glyph glyph-name="uni1EBA" unicode="&#x1eba;" horiz-adv-x="680" 
d="M286 795v80l75 46v29h-32v-29h-113v60l43 40h184l43 -40v-103l-73 -42v-41h-127zM70 0v737h560v-152h-373v-136h336v-141h-336v-156h373v-152h-560z" />
    <glyph glyph-name="uni1EBB" unicode="&#x1ebb;" horiz-adv-x="621" 
d="M243 580v80l75 46v29h-32v-29h-113v60l43 40h184l43 -40v-103l-73 -42v-41h-127zM161 0l-111 111v300l111 111h294l111 -111v-198h-329v-46l36 -35h285v-132h-397zM237 321h159v62l-36 35h-87l-36 -35v-62z" />
    <glyph glyph-name="uni1EBC" unicode="&#x1ebc;" horiz-adv-x="680" 
d="M335 795l-47 63h-20l-14 -31v-25h-126l2 81l67 69h178l47 -59h20l14 26v27h126l-1 -79l-68 -72h-178zM70 0v737h560v-152h-373v-136h336v-141h-336v-156h373v-152h-560z" />
    <glyph glyph-name="uni1EBD" unicode="&#x1ebd;" horiz-adv-x="621" 
d="M292 580l-47 63h-20l-14 -31v-25h-126l2 81l67 69h178l47 -59h20l14 26v27h126l-1 -79l-68 -72h-178zM161 0l-111 111v300l111 111h294l111 -111v-198h-329v-46l36 -35h285v-132h-397zM237 321h159v62l-36 35h-87l-36 -35v-62z" />
    <glyph glyph-name="uni1EBE" unicode="&#x1ebe;" horiz-adv-x="680" 
d="M548 877l105 157h182l-150 -157h-137zM139 795l113 152h198l113 -152h-141l-71 72l-70 -72h-142zM70 0v737h560v-152h-373v-136h336v-141h-336v-156h373v-152h-560z" />
    <glyph glyph-name="uni1EBF" unicode="&#x1ebf;" horiz-adv-x="621" 
d="M505 662l105 157h182l-150 -157h-137zM96 580l113 152h198l113 -152h-141l-71 72l-70 -72h-142zM161 0l-111 111v300l111 111h294l111 -111v-198h-329v-46l36 -35h285v-132h-397zM237 321h159v62l-36 35h-87l-36 -35v-62z" />
    <glyph glyph-name="uni1EC0" unicode="&#x1ec0;" horiz-adv-x="680" 
d="M17 877l-150 157h182l105 -157h-137zM139 795l113 152h198l113 -152h-142l-70 72l-71 -72h-141zM70 0v737h560v-152h-373v-136h336v-141h-336v-156h373v-152h-560z" />
    <glyph glyph-name="uni1EC1" unicode="&#x1ec1;" horiz-adv-x="621" 
d="M-26 662l-150 157h182l105 -157h-137zM96 580l113 152h198l113 -152h-142l-70 72l-71 -72h-141zM161 0l-111 111v300l111 111h294l111 -111v-198h-329v-46l36 -35h285v-132h-397zM237 321h159v62l-36 35h-87l-36 -35v-62z" />
    <glyph glyph-name="uni1EC2" unicode="&#x1ec2;" horiz-adv-x="680" 
d="M547 877v80l75 46v29h-32v-29h-113v60l43 40h184l43 -40v-103l-73 -42v-41h-127zM139 795l113 152h198l113 -152h-142l-70 72l-71 -72h-141zM70 0v737h560v-152h-373v-136h336v-141h-336v-156h373v-152h-560z" />
    <glyph glyph-name="uni1EC3" unicode="&#x1ec3;" horiz-adv-x="621" 
d="M504 662v80l75 46v29h-32v-29h-113v60l43 40h184l43 -40v-103l-73 -42v-41h-127zM96 580l113 152h198l113 -152h-142l-70 72l-71 -72h-141zM161 0l-111 111v300l111 111h294l111 -111v-198h-329v-46l36 -35h285v-132h-397zM237 321h159v62l-36 35h-87l-36 -35v-62z" />
    <glyph glyph-name="uni1EC4" unicode="&#x1ec4;" horiz-adv-x="680" 
d="M340 979l-47 63h-20l-14 -31v-25h-126l2 81l67 69h178l47 -59h20l14 26v27h126l-1 -79l-68 -72h-178zM139 795l113 152h198l113 -152h-142l-70 72l-71 -72h-141zM70 0v737h560v-152h-373v-136h336v-141h-336v-156h373v-152h-560z" />
    <glyph glyph-name="uni1EC5" unicode="&#x1ec5;" horiz-adv-x="621" 
d="M297 764l-47 63h-20l-14 -31v-25h-126l2 81l67 69h178l47 -59h20l14 26v27h126l-1 -79l-68 -72h-178zM96 580l113 152h198l113 -152h-142l-70 72l-71 -72h-141zM161 0l-111 111v300l111 111h294l111 -111v-198h-329v-46l36 -35h285v-132h-397zM237 321h159v62l-36 35h-87
l-36 -35v-62z" />
    <glyph glyph-name="uni1EC6" unicode="&#x1ec6;" horiz-adv-x="680" 
d="M139 795l113 152h198l113 -152h-142l-70 72l-71 -72h-141zM70 0v737h560v-152h-373v-136h336v-141h-336v-156h373v-152h-560zM258 -197v140h187v-140h-187z" />
    <glyph glyph-name="uni1EC7" unicode="&#x1ec7;" horiz-adv-x="621" 
d="M96 580l113 152h198l113 -152h-142l-70 72l-71 -72h-141zM161 0l-111 111v300l111 111h294l111 -111v-198h-329v-46l36 -35h285v-132h-397zM237 321h159v62l-36 35h-87l-36 -35v-62zM215 -197v140h187v-140h-187z" />
    <glyph glyph-name="uni1EC8" unicode="&#x1ec8;" horiz-adv-x="420" 
d="M145 795v80l75 46v29h-32v-29h-113v60l43 40h184l43 -40v-103l-73 -42v-41h-127zM40 0v141h82l-2 455h-80v141h340v-141h-81l-2 -455h83v-141h-340z" />
    <glyph glyph-name="uni1EC9" unicode="&#x1ec9;" horiz-adv-x="317" 
d="M94 580v80l75 46v29h-32v-29h-113v60l43 40h184l43 -40v-103l-73 -42v-41h-127zM65 0v523h187v-523h-187z" />
    <glyph glyph-name="uni1ECA" unicode="&#x1eca;" horiz-adv-x="420" 
d="M40 0v141h82l-2 455h-80v141h340v-141h-81l-2 -455h83v-141h-340zM117 -197v140h187v-140h-187z" />
    <glyph glyph-name="uni1ECB" unicode="&#x1ecb;" horiz-adv-x="317" 
d="M65 580v140h187v-140h-187zM65 0v523h187v-523h-187zM65 -197v140h187v-140h-187z" />
    <glyph glyph-name="uni1ECC" unicode="&#x1ecc;" 
d="M161 0l-111 111v515l111 111h432l111 -111v-515l-111 -111h-432zM273 142h210l35 35v383l-37 35h-208l-36 -35v-383zM284 -197v140h187v-140h-187z" />
    <glyph glyph-name="uni1ECD" unicode="&#x1ecd;" horiz-adv-x="648" 
d="M161 0l-111 111v300l111 111h326l111 -111v-300l-111 -111h-326zM272 104h104l35 36v243l-35 35h-104l-35 -35v-243zM231 -197v140h187v-140h-187z" />
    <glyph glyph-name="uni1ECE" unicode="&#x1ece;" 
d="M312 795v80l75 46v29h-32v-29h-113v60l43 40h184l43 -40v-103l-73 -42v-41h-127zM161 0l-111 111v515l111 111h432l111 -111v-515l-111 -111h-432zM273 142h210l35 35v383l-37 35h-208l-36 -35v-383z" />
    <glyph glyph-name="uni1ECF" unicode="&#x1ecf;" horiz-adv-x="648" 
d="M259 580v80l75 46v29h-32v-29h-113v60l43 40h184l43 -40v-103l-73 -42v-41h-127zM161 0l-111 111v300l111 111h326l111 -111v-300l-111 -111h-326zM272 104h104l35 36v243l-35 35h-104l-35 -35v-243z" />
    <glyph glyph-name="uni1ED0" unicode="&#x1ed0;" 
d="M574 877l105 157h182l-150 -157h-137zM165 795l113 152h198l113 -152h-141l-71 72l-70 -72h-142zM161 0l-111 111v515l111 111h432l111 -111v-515l-111 -111h-432zM273 142h210l35 35v383l-37 35h-208l-36 -35v-383z" />
    <glyph glyph-name="uni1ED1" unicode="&#x1ed1;" horiz-adv-x="648" 
d="M521 662l105 157h182l-150 -157h-137zM112 580l113 152h198l113 -152h-141l-71 72l-70 -72h-142zM161 0l-111 111v300l111 111h326l111 -111v-300l-111 -111h-326zM272 104h104l35 36v243l-35 35h-104l-35 -35v-243z" />
    <glyph glyph-name="uni1ED2" unicode="&#x1ed2;" 
d="M43 877l-150 157h182l105 -157h-137zM165 795l113 152h198l113 -152h-142l-70 72l-71 -72h-141zM161 0l-111 111v515l111 111h432l111 -111v-515l-111 -111h-432zM273 142h210l35 35v383l-37 35h-208l-36 -35v-383z" />
    <glyph glyph-name="uni1ED3" unicode="&#x1ed3;" horiz-adv-x="648" 
d="M-10 662l-150 157h182l105 -157h-137zM112 580l113 152h198l113 -152h-142l-70 72l-71 -72h-141zM161 0l-111 111v300l111 111h326l111 -111v-300l-111 -111h-326zM272 104h104l35 36v243l-35 35h-104l-35 -35v-243z" />
    <glyph glyph-name="uni1ED4" unicode="&#x1ed4;" 
d="M573 877v80l75 46v29h-32v-29h-113v60l43 40h184l43 -40v-103l-73 -42v-41h-127zM165 795l113 152h198l113 -152h-142l-70 72l-71 -72h-141zM161 0l-111 111v515l111 111h432l111 -111v-515l-111 -111h-432zM273 142h210l35 35v383l-37 35h-208l-36 -35v-383z" />
    <glyph glyph-name="uni1ED5" unicode="&#x1ed5;" horiz-adv-x="648" 
d="M520 662v80l75 46v29h-32v-29h-113v60l43 40h184l43 -40v-103l-73 -42v-41h-127zM112 580l113 152h198l113 -152h-142l-70 72l-71 -72h-141zM161 0l-111 111v300l111 111h326l111 -111v-300l-111 -111h-326zM272 104h104l35 36v243l-35 35h-104l-35 -35v-243z" />
    <glyph glyph-name="uni1ED6" unicode="&#x1ed6;" 
d="M366 979l-47 63h-20l-14 -31v-25h-126l2 81l67 69h178l47 -59h20l14 26v27h126l-1 -79l-68 -72h-178zM165 795l113 152h198l113 -152h-142l-70 72l-71 -72h-141zM161 0l-111 111v515l111 111h432l111 -111v-515l-111 -111h-432zM273 142h210l35 35v383l-37 35h-208
l-36 -35v-383z" />
    <glyph glyph-name="uni1ED7" unicode="&#x1ed7;" horiz-adv-x="648" 
d="M313 764l-47 63h-20l-14 -31v-25h-126l2 81l67 69h178l47 -59h20l14 26v27h126l-1 -79l-68 -72h-178zM112 580l113 152h198l113 -152h-142l-70 72l-71 -72h-141zM161 0l-111 111v300l111 111h326l111 -111v-300l-111 -111h-326zM272 104h104l35 36v243l-35 35h-104
l-35 -35v-243z" />
    <glyph glyph-name="uni1ED8" unicode="&#x1ed8;" 
d="M165 795l113 152h198l113 -152h-142l-70 72l-71 -72h-141zM161 0l-111 111v515l111 111h432l111 -111v-515l-111 -111h-432zM273 142h210l35 35v383l-37 35h-208l-36 -35v-383zM284 -197v140h187v-140h-187z" />
    <glyph glyph-name="uni1ED9" unicode="&#x1ed9;" horiz-adv-x="648" 
d="M112 580l113 152h198l113 -152h-142l-70 72l-71 -72h-141zM161 0l-111 111v300l111 111h326l111 -111v-300l-111 -111h-326zM272 104h104l35 36v243l-35 35h-104l-35 -35v-243zM231 -197v140h187v-140h-187z" />
    <glyph glyph-name="uni1EDA" unicode="&#x1eda;" 
d="M316 795l105 157h182l-150 -157h-137zM161 0l-111 111v515l111 111h432l53 -53h51l18 118h180l-107 -206h-84v-485l-111 -111h-432zM273 142h210l35 35v383l-37 35h-208l-36 -35v-383z" />
    <glyph glyph-name="uni1EDB" unicode="&#x1edb;" horiz-adv-x="785" 
d="M263 580l105 157h182l-150 -157h-137zM161 0l-111 111v300l111 111h326l51 -51h49l18 118h180l-107 -206h-80v-272l-111 -111h-326zM272 104h104l35 36v243l-35 35h-104l-35 -35v-243z" />
    <glyph glyph-name="uni1EDC" unicode="&#x1edc;" 
d="M303 795l-150 157h182l105 -157h-137zM161 0l-111 111v515l111 111h432l53 -53h51l18 118h180l-107 -206h-84v-485l-111 -111h-432zM273 142h210l35 35v383l-37 35h-208l-36 -35v-383z" />
    <glyph glyph-name="uni1EDD" unicode="&#x1edd;" horiz-adv-x="785" 
d="M250 580l-150 157h182l105 -157h-137zM161 0l-111 111v300l111 111h326l51 -51h49l18 118h180l-107 -206h-80v-272l-111 -111h-326zM272 104h104l35 36v243l-35 35h-104l-35 -35v-243z" />
    <glyph glyph-name="uni1EDE" unicode="&#x1ede;" 
d="M312 795v80l75 46v29h-32v-29h-113v60l43 40h184l43 -40v-103l-73 -42v-41h-127zM161 0l-111 111v515l111 111h432l53 -53h51l18 118h180l-107 -206h-84v-485l-111 -111h-432zM273 142h210l35 35v383l-37 35h-208l-36 -35v-383z" />
    <glyph glyph-name="uni1EDF" unicode="&#x1edf;" horiz-adv-x="785" 
d="M259 580v80l75 46v29h-32v-29h-113v60l43 40h184l43 -40v-103l-73 -42v-41h-127zM161 0l-111 111v300l111 111h326l51 -51h49l18 118h180l-107 -206h-80v-272l-111 -111h-326zM272 104h104l35 36v243l-35 35h-104l-35 -35v-243z" />
    <glyph glyph-name="uni1EE0" unicode="&#x1ee0;" 
d="M361 795l-47 63h-20l-14 -31v-25h-126l2 81l67 69h178l47 -59h20l14 26v27h126l-1 -79l-68 -72h-178zM161 0l-111 111v515l111 111h432l53 -53h51l18 118h180l-107 -206h-84v-485l-111 -111h-432zM273 142h210l35 35v383l-37 35h-208l-36 -35v-383z" />
    <glyph glyph-name="uni1EE1" unicode="&#x1ee1;" horiz-adv-x="785" 
d="M308 580l-47 63h-20l-14 -31v-25h-126l2 81l67 69h178l47 -59h20l14 26v27h126l-1 -79l-68 -72h-178zM161 0l-111 111v300l111 111h326l51 -51h49l18 118h180l-107 -206h-80v-272l-111 -111h-326zM272 104h104l35 36v243l-35 35h-104l-35 -35v-243z" />
    <glyph glyph-name="uni1EE2" unicode="&#x1ee2;" 
d="M161 0l-111 111v515l111 111h432l53 -53h51l18 118h180l-107 -206h-84v-485l-111 -111h-432zM273 142h210l35 35v383l-37 35h-208l-36 -35v-383zM284 -197v140h187v-140h-187z" />
    <glyph glyph-name="uni1EE3" unicode="&#x1ee3;" horiz-adv-x="785" 
d="M161 0l-111 111v300l111 111h326l51 -51h49l18 118h180l-107 -206h-80v-272l-111 -111h-326zM272 104h104l35 36v243l-35 35h-104l-35 -35v-243zM231 -197v140h187v-140h-187z" />
    <glyph glyph-name="uni1EE4" unicode="&#x1ee4;" horiz-adv-x="777" 
d="M174 0l-109 111v626h187v-560l35 -35h203l35 35v560h187v-626l-111 -111h-427zM293 -197v140h187v-140h-187z" />
    <glyph glyph-name="uni1EE5" unicode="&#x1ee5;" horiz-adv-x="671" 
d="M166 -1l-111 111v412h187v-382l35 -35h41l101 86v331h187v-522h-187v70l-87 -71h-166zM262 -197v140h187v-140h-187z" />
    <glyph glyph-name="uni1EE6" unicode="&#x1ee6;" horiz-adv-x="777" 
d="M324 795v80l75 46v29h-32v-29h-113v60l43 40h184l43 -40v-103l-73 -42v-41h-127zM174 0l-109 111v626h187v-560l35 -35h203l35 35v560h187v-626l-111 -111h-427z" />
    <glyph glyph-name="uni1EE7" unicode="&#x1ee7;" horiz-adv-x="671" 
d="M266 580v80l75 46v29h-32v-29h-113v60l43 40h184l43 -40v-103l-73 -42v-41h-127zM166 -1l-111 111v412h187v-382l35 -35h41l101 86v331h187v-522h-187v70l-87 -71h-166z" />
    <glyph glyph-name="uni1EE8" unicode="&#x1ee8;" horiz-adv-x="777" 
d="M328 795l105 157h182l-150 -157h-137zM174 0l-109 111v626h187v-560l35 -35h203l35 35v560h187v-53h49l18 118h180l-107 -206h-140v-485l-111 -111h-427z" />
    <glyph glyph-name="uni1EE9" unicode="&#x1ee9;" horiz-adv-x="849" 
d="M270 580l105 157h182l-150 -157h-137zM166 -1l-111 111v412h187v-382l35 -35h41l101 86v331h187v-59h45l18 118h180l-107 -206h-136v-375h-187v70l-87 -71h-166z" />
    <glyph glyph-name="uni1EEA" unicode="&#x1eea;" horiz-adv-x="777" 
d="M315 795l-150 157h182l105 -157h-137zM174 0l-109 111v626h187v-560l35 -35h203l35 35v560h187v-53h49l18 118h180l-107 -206h-140v-485l-111 -111h-427z" />
    <glyph glyph-name="uni1EEB" unicode="&#x1eeb;" horiz-adv-x="849" 
d="M257 580l-150 157h182l105 -157h-137zM166 -1l-111 111v412h187v-382l35 -35h41l101 86v331h187v-59h45l18 118h180l-107 -206h-136v-375h-187v70l-87 -71h-166z" />
    <glyph glyph-name="uni1EEC" unicode="&#x1eec;" horiz-adv-x="777" 
d="M324 795v80l75 46v29h-32v-29h-113v60l43 40h184l43 -40v-103l-73 -42v-41h-127zM174 0l-109 111v626h187v-560l35 -35h203l35 35v560h187v-53h49l18 118h180l-107 -206h-140v-485l-111 -111h-427z" />
    <glyph glyph-name="uni1EED" unicode="&#x1eed;" horiz-adv-x="849" 
d="M266 580v80l75 46v29h-32v-29h-113v60l43 40h184l43 -40v-103l-73 -42v-41h-127zM166 -1l-111 111v412h187v-382l35 -35h41l101 86v331h187v-59h45l18 118h180l-107 -206h-136v-375h-187v70l-87 -71h-166z" />
    <glyph glyph-name="uni1EEE" unicode="&#x1eee;" horiz-adv-x="777" 
d="M373 795l-47 63h-20l-14 -31v-25h-126l2 81l67 69h178l47 -59h20l14 26v27h126l-1 -79l-68 -72h-178zM174 0l-109 111v626h187v-560l35 -35h203l35 35v560h187v-53h49l18 118h180l-107 -206h-140v-485l-111 -111h-427z" />
    <glyph glyph-name="uni1EEF" unicode="&#x1eef;" horiz-adv-x="849" 
d="M315 580l-47 63h-20l-14 -31v-25h-126l2 81l67 69h178l47 -59h20l14 26v27h126l-1 -79l-68 -72h-178zM166 -1l-111 111v412h187v-382l35 -35h41l101 86v331h187v-59h45l18 118h180l-107 -206h-136v-375h-187v70l-87 -71h-166z" />
    <glyph glyph-name="uni1EF0" unicode="&#x1ef0;" horiz-adv-x="777" 
d="M174 0l-109 111v626h187v-560l35 -35h203l35 35v560h187v-53h49l18 118h180l-107 -206h-140v-485l-111 -111h-427zM293 -197v140h187v-140h-187z" />
    <glyph glyph-name="uni1EF1" unicode="&#x1ef1;" horiz-adv-x="849" 
d="M166 -1l-111 111v412h187v-382l35 -35h41l101 86v331h187v-59h45l18 118h180l-107 -206h-136v-375h-187v70l-87 -71h-166zM238 -197v140h187v-140h-187z" />
    <glyph glyph-name="Ygrave" unicode="&#x1ef2;" horiz-adv-x="678" 
d="M265 795l-150 157h182l105 -157h-137zM246 0v258l-74 64l-172 415h215l106 -339h36l106 339h215l-172 -415l-74 -64v-258h-186z" />
    <glyph glyph-name="ygrave" unicode="&#x1ef3;" horiz-adv-x="657" 
d="M256 580l-150 157h182l105 -157h-137zM97 -187v127h296l35 35v103l-96 -78h-166l-111 111v411h187v-381l35 -35h41l110 94v322h176v-596l-112 -113h-395z" />
    <glyph glyph-name="uni1EF4" unicode="&#x1ef4;" horiz-adv-x="678" 
d="M246 0v258l-74 64l-172 415h215l106 -339h36l106 339h215l-172 -415l-74 -64v-258h-186zM246 -197v140h187v-140h-187z" />
    <glyph glyph-name="uni1EF5" unicode="&#x1ef5;" horiz-adv-x="657" 
d="M97 -187v127h296l35 35v103l-96 -78h-166l-111 111v411h187v-381l35 -35h41l110 94v322h176v-596l-112 -113h-395zM650 -187v140h187v-140h-187z" />
    <glyph glyph-name="uni1EF6" unicode="&#x1ef6;" horiz-adv-x="678" 
d="M274 795v80l75 46v29h-32v-29h-113v60l43 40h184l43 -40v-103l-73 -42v-41h-127zM246 0v258l-74 64l-172 415h215l106 -339h36l106 339h215l-172 -415l-74 -64v-258h-186z" />
    <glyph glyph-name="uni1EF7" unicode="&#x1ef7;" horiz-adv-x="657" 
d="M265 580v80l75 46v29h-32v-29h-113v60l43 40h184l43 -40v-103l-73 -42v-41h-127zM97 -187v127h296l35 35v103l-96 -78h-166l-111 111v411h187v-381l35 -35h41l110 94v322h176v-596l-112 -113h-395z" />
    <glyph glyph-name="uni1EF8" unicode="&#x1ef8;" horiz-adv-x="678" 
d="M323 795l-47 63h-20l-14 -31v-25h-126l2 81l67 69h178l47 -59h20l14 26v27h126l-1 -79l-68 -72h-178zM246 0v258l-74 64l-172 415h215l106 -339h36l106 339h215l-172 -415l-74 -64v-258h-186z" />
    <glyph glyph-name="uni1EF9" unicode="&#x1ef9;" horiz-adv-x="657" 
d="M314 580l-47 63h-20l-14 -31v-25h-126l2 81l67 69h178l47 -59h20l14 26v27h126l-1 -79l-68 -72h-178zM97 -187v127h296l35 35v103l-96 -78h-166l-111 111v411h187v-381l35 -35h41l110 94v322h176v-596l-112 -113h-395z" />
    <glyph glyph-name="uni2010" unicode="&#x2010;" horiz-adv-x="630" 
d="M55 212v133h330v-133h-330z" />
    <glyph glyph-name="endash" unicode="&#x2013;" horiz-adv-x="675" 
d="M55 202v132h565v-132h-565z" />
    <glyph glyph-name="emdash" unicode="&#x2014;" horiz-adv-x="937" 
d="M55 202v132h817v-132h-817z" />
    <glyph glyph-name="quoteleft" unicode="&#x2018;" horiz-adv-x="321" 
d="M49 470l108 267h113l-41 -267h-180z" />
    <glyph glyph-name="quoteright" unicode="&#x2019;" horiz-adv-x="321" 
d="M50 470l41 267h180l-108 -267h-113z" />
    <glyph glyph-name="quotesinglbase" unicode="&#x201a;" horiz-adv-x="321" 
d="M50 -163l41 267h180l-108 -267h-113z" />
    <glyph glyph-name="quotedblleft" unicode="&#x201c;" horiz-adv-x="532" 
d="M260 470l108 267h113l-41 -267h-180zM49 470l108 267h113l-41 -267h-180z" />
    <glyph glyph-name="quotedblright" unicode="&#x201d;" horiz-adv-x="532" 
d="M262 470l41 267h180l-108 -267h-113zM50 470l41 267h180l-108 -267h-113z" />
    <glyph glyph-name="quotedblbase" unicode="&#x201e;" horiz-adv-x="522" 
d="M262 -163l41 267h180l-108 -267h-113zM51 -163l41 267h180l-108 -267h-113z" />
    <glyph glyph-name="dagger" unicode="&#x2020;" horiz-adv-x="475" 
d="M146 -40v427h-141v128h141v167h183v-167h141v-128h-141v-427h-183z" />
    <glyph glyph-name="daggerdbl" unicode="&#x2021;" horiz-adv-x="475" 
d="M146 -40v155h-141v128h141v156h-141v128h141v155h183v-155h141v-128h-141v-156h141v-128h-141v-155h-183z" />
    <glyph glyph-name="bullet" unicode="&#x2022;" horiz-adv-x="452" 
d="M153 210l-88 89v139l88 89h140l89 -89v-139l-89 -89h-140z" />
    <glyph glyph-name="ellipsis" unicode="&#x2026;" horiz-adv-x="845" 
d="M601 0v157h169v-157h-169zM65 0v157h169v-157h-169zM333 0v157h169v-157h-169z" />
    <glyph glyph-name="perthousand" unicode="&#x2030;" horiz-adv-x="1427" 
d="M198 -19l-91 90l684 685l91 -91zM167 366l-112 106v158l112 107h167l113 -107v-158l-113 -106h-167zM228 489h46l35 36v52l-35 36h-46l-35 -36v-52zM656 0l-113 107v158l113 106h166l113 -106v-158l-113 -107h-166zM1092 0l-112 107v158l112 106h167l113 -106v-158
l-113 -107h-167zM715 124h47l35 35v53l-35 35h-47l-35 -35v-53zM1152 124h47l35 35v53l-35 35h-47l-35 -35v-53z" />
    <glyph glyph-name="minute" unicode="&#x2032;" horiz-adv-x="321" 
d="M50 470l41 267h180l-108 -267h-113z" />
    <glyph glyph-name="second" unicode="&#x2033;" horiz-adv-x="533" 
d="M262 470l40 267h181l-108 -267h-113zM50 470l41 267h180l-107 -267h-114z" />
    <glyph glyph-name="guilsinglleft" unicode="&#x2039;" horiz-adv-x="444" 
d="M219 0l-194 262l194 260h200l-194 -260l194 -262h-200z" />
    <glyph glyph-name="guilsinglright" unicode="&#x203a;" horiz-adv-x="444" 
d="M25 0l194 262l-194 260h200l194 -260l-194 -262h-200z" />
    <glyph glyph-name="fraction" unicode="&#x2044;" horiz-adv-x="738" 
d="M159 -66l-94 62l514 807l94 -61z" />
    <glyph glyph-name="uni2052" unicode="&#x2052;" horiz-adv-x="647" 
d="M163 -31l-108 68l429 731l108 -68zM84 580v157h170v-157h-170zM393 0v157h170v-157h-170z" />
    <glyph glyph-name="uni2074" unicode="&#x2074;" horiz-adv-x="406" 
d="M214 346v61h-189v85l192 245h112v-238h42v-92h-42v-61h-115zM160 499h54v72z" />
    <glyph glyph-name="colonmonetary" unicode="&#x20a1;" horiz-adv-x="698" 
d="M176 -109l7 109h-22l-111 111v515l111 111h68l8 110h126l-7 -110h35l7 110h127l-7 -110h22l112 -111v-149h-182v83l-36 35h-161l-36 -35v-383l36 -35h167l37 35v84h181v-150l-111 -111h-76l-7 -109h-126l7 109h-35l-7 -109h-127z" />
    <glyph glyph-name="franc" unicode="&#x20a3;" horiz-adv-x="634" 
d="M65 0v104h-55v118h55v515h554v-152h-367v-156h321v-141h-321v-66h121v-118h-121v-104h-187z" />
    <glyph glyph-name="lira" unicode="&#x20a4;" horiz-adv-x="755" 
d="M50 0v152h77v78h-77v121h77v44h-77v121h77v110l111 111h356l111 -111v-149h-182v83l-35 35h-139l-35 -35v-44h160v-121h-160v-44h160v-121h-160v-78h391v-152h-655z" />
    <glyph glyph-name="uni20A6" unicode="&#x20a6;" horiz-adv-x="871" 
d="M127 0v230h-77v121h77v44h-77v121h77v221h204l248 -442v442h174v-221h78v-121h-78v-44h78v-121h-78v-230h-174l-242 432h-36v-432h-174z" />
    <glyph glyph-name="peseta" unicode="&#x20a7;" horiz-adv-x="823" 
d="M127 0v423h-77v121h77v193h493l111 -111v-82h77v-121h-77v-81l-111 -111h-306v-231h-187zM314 373h201l35 35v152l-35 35h-201v-222z" />
    <glyph glyph-name="uni20A9" unicode="&#x20a9;" horiz-adv-x="1191" 
d="M246 0l-55 261h-141v121h115l-9 44h-106v121h80l-40 190h215l79 -596h35l80 596h192l80 -596h35l79 596h215l-40 -190h81v-121h-107l-9 -44h116v-121h-142l-55 -261h-297l-52 340l-52 -340h-297z" />
    <glyph glyph-name="dong" unicode="&#x20ab;" horiz-adv-x="691" 
d="M182 0l-111 111v300l111 112h188l75 -64v102h-121v118h121v58h187v-58h55v-118h-55v-561h-187v63l-76 -63h-187zM277 107h79l89 77v155l-88 77h-80l-24 -27v-257zM76 -198v132h565v-132h-565z" />
    <glyph glyph-name="Euro" unicode="&#x20ac;" horiz-adv-x="798" 
d="M241 1l-111 111v136h-80v110h80v40h-80v110h80v119l111 111h399l112 -111v-149h-182v83l-36 35h-181l-36 -35v-53h187v-110h-187v-40h142v-110h-142v-70l36 -35h187l37 35v84h181v-150l-111 -111h-406z" />
    <glyph glyph-name="uni20AD" unicode="&#x20ad;" horiz-adv-x="698" 
d="M76 0v361h-56v117h56v259h187v-259h26l202 259h207l-208 -259h173v-117h-191l226 -361h-199l-211 361h-25v-361h-187z" />
    <glyph glyph-name="uni20B1" unicode="&#x20b1;" horiz-adv-x="823" 
d="M127 0v343h-77v121h77v44h-77v121h77v108h493l108 -108h80v-121h-77v-44h77v-121h-77l-111 -112h-306v-231h-187zM314 373h201l35 35v152l-35 35h-201v-222z" />
    <glyph glyph-name="uni20B2" unicode="&#x20b2;" horiz-adv-x="755" 
d="M281 -110v110h-120l-111 111v515l111 111h120v110h182v-110h110l111 -111v-136l-182 1v69l-36 35h-193l-36 -35v-382l36 -36h157l96 85v26h-135v143h304v-396h-158v66l-74 -66v-110h-182z" />
    <glyph glyph-name="uni20B5" unicode="&#x20b5;" horiz-adv-x="698" 
d="M263 -110v110h-102l-111 111v515l111 111h102v110h183v-110h94l112 -111v-149h-182v83l-36 35h-161l-36 -35v-383l36 -35h167l37 35v84h181v-150l-111 -111h-101v-110h-183z" />
    <glyph glyph-name="uni20B9" unicode="&#x20b9;" horiz-adv-x="655" 
d="M359 0l-289 251v142h276l35 35v16h-311v121h311v16l-35 35h-276v121h570v-121h-77v-51h77v-121h-77v-82l-111 -111h-137l276 -251h-232z" />
    <glyph glyph-name="uni20BA" unicode="&#x20ba;" horiz-adv-x="720" 
d="M127 0v289l-77 -28v126l77 28v44l-77 -28v127l77 28v151h187v-84l158 57v-127l-158 -57v-44l158 57v-126l-158 -57v-203h134l35 35v182h187v-259l-111 -111h-432z" />
    <glyph glyph-name="uni20BC" unicode="&#x20bc;" horiz-adv-x="854" 
d="M50 0v516l111 111h175v110h182v-110h175l111 -111v-516h-187v439l-36 35h-63v-474h-182v474h-63l-36 -35v-439h-187z" />
    <glyph glyph-name="uni20BD" unicode="&#x20bd;" horiz-adv-x="747" 
d="M127 0v66h-77v121h77v44h-77v142h77v364h494l111 -111v-284l-111 -111h-307v-44h283v-121h-283v-66h-187zM314 373h201l35 35v152l-35 35h-201v-222z" />
    <glyph glyph-name="uni2116" unicode="&#x2116;" horiz-adv-x="1203" 
d="M854 367l-112 106v158l112 107h167l112 -107v-158l-112 -106h-167zM70 0v737h204l248 -442v442h174v-737h-174l-242 432h-36v-432h-174zM914 490h46l36 36v52l-36 36h-46l-35 -36v-52zM764 203v126h347v-126h-347z" />
    <glyph glyph-name="trademark" unicode="&#x2122;" horiz-adv-x="956" 
d="M404 319v418h183l58 -191l58 191h183v-418h-145v203l-63 -189h-67l-63 189v-203h-144zM119 319v308h-104v110h352v-110h-104v-308h-144z" />
    <glyph glyph-name="minus" unicode="&#x2212;" horiz-adv-x="550" 
d="M55 302v132h440v-132h-440z" />
    <glyph glyph-name="uni2215" unicode="&#x2215;" horiz-adv-x="738" 
d="M159 -66l-94 62l514 807l94 -61z" />
    <glyph glyph-name="uni2219" unicode="&#x2219;" horiz-adv-x="309" 
d="M65 290v158h169v-158h-169z" />
    <glyph glyph-name="approxequal" unicode="&#x2248;" horiz-adv-x="674" 
d="M313 398l-53 79h-27l-17 -32v-42h-151l1 82l81 84h214l53 -80h27l17 32v43h151l-1 -82l-81 -84h-214zM313 178l-53 79h-27l-17 -32v-42h-151l1 82l81 84h214l53 -80h27l17 32v43h151l-1 -82l-81 -84h-214z" />
    <glyph glyph-name="notequal" unicode="&#x2260;" horiz-adv-x="638" 
d="M174 34l-110 75l53 78h-62v132h151l66 99h-217v132h306l104 154l110 -75l-53 -79h61v-132h-150l-67 -99h217v-132h-306z" />
    <glyph glyph-name="lessequal" unicode="&#x2264;" horiz-adv-x="486" 
d="M55 0v132h251l-236 237l268 268l93 -95l-173 -173l173 -174l-62 -63h47v-132h-361z" />
    <glyph glyph-name="greaterequal" unicode="&#x2265;" horiz-adv-x="486" 
d="M69 0v132h48l-62 63l173 173l-173 174l93 95l268 -269l-236 -236h251v-132h-362z" />
    <glyph glyph-name="lozenge" unicode="&#x25ca;" horiz-adv-x="624" 
d="M231 0l-231 354v29l231 354h161l232 -354v-29l-232 -354h-161zM312 183l122 185l-122 186l-122 -186z" />
    <glyph glyph-name="uni27E8" unicode="&#x27e8;" horiz-adv-x="493" 
d="M259 -187l-194 533l194 533h204l-195 -533l195 -533h-204z" />
    <glyph glyph-name="uni27E9" unicode="&#x27e9;" horiz-adv-x="483" 
d="M20 -187l195 533l-195 533h204l194 -533l-194 -533h-204z" />
    <glyph glyph-name="uniE0FF" unicode="&#xe0ff;" horiz-adv-x="600" 
 />
    <glyph glyph-name="uniEFFD" unicode="&#xeffd;" horiz-adv-x="600" 
 />
    <glyph glyph-name="uniF000" unicode="&#xf000;" horiz-adv-x="600" 
 />
    <glyph glyph-name="fi" unicode="&#xfb01;" horiz-adv-x="640" 
d="M64 0v406h-42v116h42v117l105 98h351v-109h-242l-27 -27v-79h92v-116h-92v-406h-187zM388 0v522h187v-522h-187z" />
    <glyph glyph-name="fl" unicode="&#xfb02;" horiz-adv-x="665" 
d="M64 0v406h-42v116h42v117l106 98h197v-109h-88l-28 -27v-79h92v-116h-92v-406h-187zM413 0v737h187v-737h-187z" />
    <glyph glyph-name="i.loclTRK" horiz-adv-x="317" 
d="M65 580v140h187v-140h-187zM65 0v523h187v-523h-187z" />
    </font>
</defs>
</svg>
